<svg width="30" height="30" viewBox="0 0 30 30" fill="none" xmlns="http://www.w3.org/2000/svg">
<path fill-rule="evenodd" clip-rule="evenodd" d="M23.1039 24.7376L23.1048 24.7354L23.1265 24.6811L26.875 5.78222V5.72084C26.875 5.24996 26.701 4.83889 26.3224 4.59231C25.991 4.37648 25.6101 4.36111 25.3429 4.38139C25.0604 4.40283 24.794 4.47335 24.6096 4.53205C24.5147 4.56225 24.4353 4.59135 24.3785 4.61336C24.35 4.6244 24.3269 4.63378 24.3101 4.64076L24.2936 4.64771L3.39383 12.8464L3.38808 12.8484C3.37679 12.8525 3.36187 12.8581 3.34384 12.8651C3.30789 12.8791 3.25897 12.8991 3.20149 12.9252C3.08864 12.9763 2.93272 13.0553 2.7746 13.1636C2.50603 13.3475 1.99464 13.7829 2.08099 14.4732C2.15251 15.0449 2.54664 15.408 2.81235 15.596C2.95479 15.6968 3.09106 15.7695 3.19084 15.817C3.2414 15.8411 3.28435 15.8595 3.31633 15.8725C3.33237 15.8791 3.34578 15.8843 3.35615 15.8882L3.36943 15.8932L3.37792 15.8963L7.03447 17.1273C7.02213 17.3568 7.04489 17.5907 7.10573 17.8215L8.93733 24.7695C9.1545 25.5933 9.89979 26.1671 10.7517 26.1665C11.5154 26.166 12.1927 25.704 12.4804 25.0147L15.34 21.9571L20.2512 25.7224L20.3211 25.7529C20.7673 25.9476 21.1842 26.0093 21.5653 25.9572C21.946 25.9052 22.2484 25.7456 22.4756 25.5638C22.6992 25.385 22.8524 25.1831 22.9488 25.0311C22.9977 24.9539 23.0342 24.886 23.0595 24.8349C23.0722 24.8093 23.0823 24.7876 23.0898 24.7707L23.0992 24.7489L23.1026 24.7409L23.1039 24.7376ZM8.91873 17.3435C8.8771 17.1856 8.94245 17.0189 9.08031 16.9314L21.4828 9.05521C21.4828 9.05521 22.2123 8.61234 22.1862 9.05521C22.1862 9.05521 22.3164 9.13342 21.9255 9.49808C21.5548 9.84443 13.0859 18.0208 12.229 18.8481C12.1795 18.8959 12.15 18.9506 12.1326 19.0172L10.7503 24.2915L8.91873 17.3435Z" fill="#039BE5"/>
</svg>
