<svg width="30" height="30" viewBox="0 0 30 30" fill="none" xmlns="http://www.w3.org/2000/svg">
<path fill-rule="evenodd" clip-rule="evenodd" d="M2.73019 26.6643C2.62792 27.0355 2.96603 27.3782 3.33859 27.2809L9.09777 25.7766C10.9157 26.7613 12.9625 27.2844 15.0464 27.2844H15.0525C21.91 27.2844 27.5 21.7268 27.5 14.8953C27.5 11.5842 26.2075 8.46992 23.8578 6.13114C21.5082 3.79246 18.3854 2.5 15.0524 2.5C8.19506 2.5 2.6051 8.05756 2.6051 14.8892C2.60432 17.0625 3.17797 19.1978 4.26846 21.0806L2.73019 26.6643ZM11.1074 8.96231C11.3361 8.96844 11.5897 8.98081 11.8309 9.51629C11.9909 9.87276 12.2603 10.529 12.4799 11.0636C12.6507 11.4796 12.7912 11.8219 12.8264 11.892C12.9068 12.052 12.9563 12.2366 12.8512 12.4519C12.8388 12.4774 12.8271 12.5016 12.8158 12.525C12.7315 12.7 12.6715 12.8246 12.5297 12.9874C12.4713 13.0543 12.4106 13.1277 12.3501 13.2009C12.2437 13.3295 12.1379 13.4572 12.0473 13.5475C11.8865 13.7074 11.7195 13.8799 11.905 14.1999C12.0906 14.5199 12.7399 15.5723 13.6983 16.4217C14.7287 17.339 15.6248 17.7256 16.0777 17.9211C16.1656 17.959 16.2369 17.9897 16.2891 18.0157C16.6107 18.1757 16.8024 18.1511 16.9879 17.9357C17.1735 17.7203 17.7917 17.0002 18.0082 16.6802C18.2185 16.3602 18.4348 16.4094 18.7317 16.5202C19.0285 16.6309 20.6115 17.4064 20.933 17.5664C20.9965 17.598 21.056 17.6265 21.1111 17.653C21.3348 17.7603 21.4868 17.8332 21.5513 17.9419C21.6317 18.0773 21.6317 18.7174 21.3658 19.4682C21.0938 20.2191 19.7829 20.9391 19.1892 20.9945C19.133 20.9998 19.0771 21.0066 19.0195 21.0136C18.4755 21.0794 17.7849 21.1629 15.3245 20.1944C12.2928 19.0022 10.2915 16.0442 9.8869 15.4462C9.85496 15.399 9.83297 15.3665 9.82121 15.3507L9.81437 15.3416C9.63029 15.0953 8.50409 13.5883 8.50409 12.0336C8.50409 10.546 9.23687 9.77158 9.57111 9.41834C9.59229 9.39595 9.61187 9.37526 9.62956 9.35618C9.92632 9.03618 10.2727 8.95618 10.4891 8.95618C10.7056 8.95618 10.9219 8.95618 11.1074 8.96231Z" fill="#039BE5"/>
</svg>
