<svg width="51" height="56" viewBox="0 0 51 56" fill="none" xmlns="http://www.w3.org/2000/svg">
<path d="M3 16.6667C1.34315 16.6667 0 18.0098 0 19.6667C0 21.3235 1.34315 22.6667 3 22.6667V16.6667ZM47.4444 22.6667C49.1013 22.6667 50.4444 21.3235 50.4444 19.6667C50.4444 18.0098 49.1013 16.6667 47.4444 16.6667V22.6667ZM6.03277 52.3944L7.39474 49.7214L7.39474 49.7214L6.03277 52.3944ZM3.60552 49.9667L0.9325 51.3287L0.9325 51.3287L3.60552 49.9667ZM46.8395 49.9667L44.1665 48.6048L46.8395 49.9667ZM44.4105 52.3944L43.0485 49.7214L44.4105 52.3944ZM44.4105 9.16107L45.7725 6.48806L45.7725 6.48806L44.4105 9.16107ZM46.8395 11.589L44.1665 12.951L44.1665 12.951L46.8395 11.589ZM6.03277 9.16107L7.39474 11.8341L6.03277 9.16107ZM3.60552 11.589L6.27854 12.951L3.60552 11.589ZM35.6769 32.8991C36.8484 31.7275 36.8484 29.828 35.6769 28.6565C34.5053 27.4849 32.6058 27.4849 31.4342 28.6565L35.6769 32.8991ZM22.4444 41.8889L20.3231 44.0102C21.4947 45.1818 23.3942 45.1818 24.5658 44.0102L22.4444 41.8889ZM19.0102 34.212C17.8386 33.0404 15.9391 33.0404 14.7676 34.212C13.596 35.3836 13.596 37.2831 14.7676 38.4547L19.0102 34.212ZM39.3333 3C39.3333 1.34315 37.9902 0 36.3333 0C34.6765 0 33.3333 1.34315 33.3333 3H39.3333ZM33.3333 8.55556C33.3333 10.2124 34.6765 11.5556 36.3333 11.5556C37.9902 11.5556 39.3333 10.2124 39.3333 8.55556H33.3333ZM17.1111 3C17.1111 1.34315 15.768 0 14.1111 0C12.4543 0 11.1111 1.34315 11.1111 3H17.1111ZM11.1111 8.55556C11.1111 10.2124 12.4543 11.5556 14.1111 11.5556C15.768 11.5556 17.1111 10.2124 17.1111 8.55556H11.1111ZM3 22.6667H47.4444V16.6667H3V22.6667ZM11.8894 11.5556H38.5561V5.55556H11.8894V11.5556ZM44.4444 17.4443V44.111H50.4444V17.4443H44.4444ZM38.5561 50H11.8894V56H38.5561V50ZM6 44.111V17.4443H0V44.111H6ZM11.8894 50C10.2843 50 9.26047 49.9976 8.48426 49.9342C7.74287 49.8737 7.49541 49.7727 7.39474 49.7214L4.6708 55.0674C5.75853 55.6216 6.88369 55.8235 7.99569 55.9143C9.07286 56.0023 10.3832 56 11.8894 56V50ZM0 44.111C0 45.6172 -0.00233272 46.9273 0.0856518 48.0043C0.176494 49.1162 0.378317 50.2411 0.9325 51.3287L6.27854 48.6048C6.2272 48.504 6.12627 48.2567 6.06573 47.5157C6.00233 46.7397 6 45.7162 6 44.111H0ZM7.39474 49.7214C6.91434 49.4766 6.52378 49.0861 6.27854 48.6048L0.9325 51.3287C1.75252 52.9381 3.06051 54.2469 4.6708 55.0674L7.39474 49.7214ZM44.4444 44.111C44.4444 45.7165 44.4423 46.74 44.379 47.5162C44.3185 48.2573 44.2177 48.5044 44.1665 48.6048L49.5125 51.3287C50.0669 50.2407 50.2685 49.1156 50.3591 48.0038C50.4469 46.927 50.4444 45.6169 50.4444 44.111H44.4444ZM38.5561 56C40.0623 56 41.3722 56.0023 42.4489 55.9143C43.5608 55.8234 44.6851 55.6215 45.7725 55.0674L43.0485 49.7214C42.9475 49.7728 42.7004 49.8737 41.96 49.9342C41.1844 49.9976 40.1613 50 38.5561 50V56ZM44.1665 48.6048C43.9223 49.0841 43.531 49.4756 43.0485 49.7214L45.7725 55.0674C47.3808 54.248 48.6915 52.9401 49.5125 51.3287L44.1665 48.6048ZM38.5561 11.5556C40.1613 11.5556 41.1845 11.5579 41.9601 11.6213C42.7004 11.6818 42.9476 11.7827 43.0485 11.8341L45.7725 6.48806C44.685 5.93398 43.5607 5.73209 42.4488 5.64121C41.3721 5.55322 40.0623 5.55556 38.5561 5.55556V11.5556ZM50.4444 17.4443C50.4444 15.9384 50.4469 14.6284 50.3591 13.5517C50.2685 12.4399 50.0669 11.3149 49.5125 10.227L44.1665 12.951C44.2177 13.0515 44.3186 13.2984 44.379 14.0394C44.4423 14.8154 44.4444 15.8388 44.4444 17.4443H50.4444ZM43.0485 11.8341C43.5306 12.0797 43.9221 12.4713 44.1665 12.951L49.5125 10.227C48.6917 8.61597 47.3811 7.30768 45.7725 6.48806L43.0485 11.8341ZM11.8894 5.55556C10.3832 5.55556 9.07289 5.55322 7.99575 5.6412C6.88378 5.73203 5.75858 5.9338 4.6708 6.48806L7.39474 11.8341C7.49536 11.7828 7.74278 11.6818 8.48419 11.6213C9.26043 11.5579 10.2843 11.5556 11.8894 11.5556V5.55556ZM6 17.4443C6 15.8391 6.00233 14.8157 6.06573 14.0398C6.12625 13.2991 6.22717 13.0518 6.27854 12.951L0.9325 10.227C0.378354 11.3146 0.176506 12.4393 0.0856542 13.5512C-0.00233341 14.6281 0 15.9381 0 17.4443H6ZM4.6708 6.48806C3.06019 7.3087 1.75235 8.61798 0.9325 10.227L6.27854 12.951C6.52394 12.4693 6.91466 12.0787 7.39474 11.8341L4.6708 6.48806ZM31.4342 28.6565L20.3231 39.7676L24.5658 44.0102L35.6769 32.8991L31.4342 28.6565ZM24.5658 39.7676L19.0102 34.212L14.7676 38.4547L20.3231 44.0102L24.5658 39.7676ZM33.3333 3V8.55556H39.3333V3H33.3333ZM11.1111 3V8.55556H17.1111V3H11.1111Z" fill="#039BE5"/>
</svg>
