<svg width="55" height="56" viewBox="0 0 55 56" fill="none" xmlns="http://www.w3.org/2000/svg">
<path d="M3 50C1.34315 50 0 51.3431 0 53C0 54.6569 1.34315 56 3 56V50ZM41.1111 56C42.768 56 44.1111 54.6569 44.1111 53C44.1111 51.3431 42.768 50 41.1111 50V56ZM41.1111 20.6471V17.6471C39.4543 17.6471 38.1111 18.9902 38.1111 20.6471H41.1111ZM41.1111 35.3529H38.1111C38.1111 37.0098 39.4543 38.3529 41.1111 38.3529V35.3529ZM36.9909 4.25996C37.6867 2.75631 37.0319 0.973262 35.5283 0.277407C34.0246 -0.418447 32.2416 0.236397 31.5457 1.74004L36.9909 4.25996ZM28.8235 7.6224C28.1276 9.12604 28.7825 10.9091 30.2861 11.6049C31.7898 12.3008 33.5728 11.646 34.2687 10.1423L28.8235 7.6224ZM27.5004 4.25995C28.1962 2.75631 27.5414 0.973261 26.0377 0.277407C24.5341 -0.418447 22.751 0.236399 22.0552 1.74005L27.5004 4.25995ZM19.333 7.6224C18.6371 9.12605 19.292 10.9091 20.7956 11.6049C22.2992 12.3008 24.0823 11.646 24.7781 10.1423L19.333 7.6224ZM18.0098 4.25995C18.7057 2.75631 18.0509 0.973261 16.5472 0.277407C15.0436 -0.418447 13.2605 0.236398 12.5647 1.74005L18.0098 4.25995ZM9.84244 7.6224C9.14658 9.12604 9.80143 10.9091 11.3051 11.6049C12.8087 12.3008 14.5918 11.646 15.2876 10.1423L9.84244 7.6224ZM3 56H41.1111V50H3V56ZM41.1111 23.6471H45.1944V17.6471H41.1111V23.6471ZM45.1944 32.3529H41.1111V38.3529H45.1944V32.3529ZM44.1111 35.3529V20.6471H38.1111V35.3529H44.1111ZM49 28C49 30.6268 47.0819 32.3529 45.1944 32.3529V38.3529C50.8242 38.3529 55 33.495 55 28H49ZM45.1944 23.6471C47.0819 23.6471 49 25.3732 49 28H55C55 22.505 50.8242 17.6471 45.1944 17.6471V23.6471ZM38.1111 20.4209V32.4118H44.1111V20.4209H38.1111ZM6 32.4118V20.4209H0V32.4118H6ZM5.51221 20.7059H38.5977V14.7059H5.51221V20.7059ZM6 20.4209C6 20.4252 5.99705 20.4744 5.93774 20.5385C5.87472 20.6066 5.72558 20.7059 5.51221 20.7059V14.7059C2.25226 14.7059 0 17.4884 0 20.4209H6ZM22.0556 50C13.4026 50 6 42.3483 6 32.4118H0C0 45.2165 9.6603 56 22.0556 56V50ZM38.1111 32.4118C38.1111 42.3483 30.7085 50 22.0556 50V56C34.4508 56 44.1111 45.2165 44.1111 32.4118H38.1111ZM44.1111 20.4209C44.1111 17.4865 41.8558 14.7059 38.5977 14.7059V20.7059C38.3846 20.7059 38.236 20.6068 38.1734 20.5392C38.1144 20.4755 38.1111 20.4261 38.1111 20.4209H44.1111ZM31.5457 1.74004L28.8235 7.6224L34.2687 10.1423L36.9909 4.25996L31.5457 1.74004ZM22.0552 1.74005L19.333 7.6224L24.7781 10.1423L27.5004 4.25995L22.0552 1.74005ZM12.5647 1.74005L9.84244 7.6224L15.2876 10.1423L18.0098 4.25995L12.5647 1.74005Z" fill="#039BE5"/>
</svg>
