<svg width="56" height="56" viewBox="0 0 56 56" fill="none" xmlns="http://www.w3.org/2000/svg">
<path d="M22.3202 29.4371C21.1486 30.6087 21.1486 32.5081 22.3202 33.6797C23.4918 34.8513 25.3913 34.8513 26.5628 33.6797L22.3202 29.4371ZM40.1847 20.0578C41.3563 18.8862 41.3563 16.9868 40.1847 15.8152C39.0132 14.6436 37.1137 14.6436 35.9421 15.8152L40.1847 20.0578ZM51.9979 9.62331L54.8653 10.5056L54.8653 10.5056L51.9979 9.62331ZM40.4997 46.9926L43.367 47.8749L43.367 47.8749L40.4997 46.9926ZM32.1786 47.6813L29.4954 49.0229L32.1786 47.6813ZM24.8958 33.1156L22.2125 34.4572L24.8958 33.1156ZM22.8845 31.1042L21.5428 33.7875L21.5428 33.7875L22.8845 31.1042ZM8.31883 23.8214L9.66047 21.1381L9.66047 21.1381L8.31883 23.8214ZM9.00782 15.5005L8.12556 12.6332L8.12556 12.6332L9.00782 15.5005ZM46.3771 4.00226L47.2594 6.86959L47.2594 6.86959L46.3771 4.00226ZM3.21452 20.5024L5.98545 19.3526L3.21452 20.5024ZM3.42726 17.9354L0.883046 16.3457L3.42726 17.9354ZM24.3564 32.1538L21.9804 33.9853L21.9804 33.9853L24.3564 32.1538ZM23.8469 31.6435L22.0154 34.0195L22.0154 34.0195L23.8469 31.6435ZM38.0649 52.5729L36.4752 50.0287L36.4752 50.0287L38.0649 52.5729ZM35.499 52.7854L36.6487 50.0144L36.6487 50.0144L35.499 52.7854ZM52.8874 4.7832L55.7036 3.74933L52.8874 4.7832ZM51.2168 3.11324L50.1829 5.92946L50.1829 5.92946L51.2168 3.11324ZM26.5628 33.6797L40.1847 20.0578L35.9421 15.8152L22.3202 29.4371L26.5628 33.6797ZM49.1306 8.74105L37.6324 46.1104L43.367 47.8749L54.8653 10.5056L49.1306 8.74105ZM34.8619 46.3396L27.5791 31.774L22.2125 34.4572L29.4954 49.0229L34.8619 46.3396ZM24.2261 28.421L9.66047 21.1381L6.97718 26.5047L21.5428 33.7875L24.2261 28.421ZM9.89008 18.3678L47.2594 6.86959L45.4949 1.13492L8.12556 12.6332L9.89008 18.3678ZM9.66047 21.1381C8.03995 20.3279 7.00756 19.8086 6.31306 19.3816C5.5246 18.8968 5.79056 18.8829 5.98545 19.3526L0.443589 21.6521C1.04018 23.0899 2.29081 23.9519 3.17033 24.4927C4.14381 25.0913 5.46272 25.7475 6.97718 26.5047L9.66047 21.1381ZM8.12556 12.6332C6.50716 13.1311 5.09831 13.5616 4.03962 13.9921C3.08313 14.381 1.70786 15.0256 0.883046 16.3457L5.97147 19.525C5.70205 19.9562 5.44205 19.8988 6.29949 19.5502C7.05472 19.2432 8.15846 18.9007 9.89008 18.3678L8.12556 12.6332ZM5.98545 19.3526C6.00917 19.4098 6.00349 19.4738 5.97147 19.525L0.883046 16.3457C-0.112303 17.9388 -0.276877 19.9158 0.443589 21.6521L5.98545 19.3526ZM27.5791 31.774C27.3809 31.3775 27.1167 30.8208 26.7325 30.3223L21.9804 33.9853C21.9371 33.9292 21.9265 33.9017 21.9648 33.9716C21.9855 34.0094 22.0142 34.0638 22.057 34.1478C22.1 34.2322 22.149 34.3301 22.2125 34.4572L27.5791 31.774ZM21.5428 33.7875C21.6704 33.8513 21.7684 33.9003 21.8534 33.9436C21.9378 33.9865 21.9924 34.0153 22.0305 34.0361C22.1011 34.0748 22.0728 34.0638 22.0154 34.0195L25.6784 29.2675C25.1792 28.8826 24.6189 28.6174 24.2261 28.421L21.5428 33.7875ZM26.7325 30.3223C26.4307 29.9308 26.0777 29.5752 25.6784 29.2675L22.0154 34.0195C21.9987 34.0066 21.9873 33.9943 21.9804 33.9853L26.7325 30.3223ZM37.6324 46.1104C37.0996 47.842 36.7571 48.9456 36.45 49.7008C36.1014 50.5581 36.0441 50.2981 36.4752 50.0287L39.6545 55.1172C40.9746 54.2924 41.6192 52.9172 42.0082 51.9607C42.4386 50.9021 42.8691 49.4933 43.367 47.8749L37.6324 46.1104ZM29.4954 49.0229C30.2528 50.5379 30.9093 51.8567 31.5085 52.8304C32.0499 53.7103 32.9121 54.96 34.3492 55.5563L36.6487 50.0144C37.1177 50.209 37.1035 50.4742 36.6186 49.6861C36.1915 48.992 35.6719 47.9596 34.8619 46.3396L29.4954 49.0229ZM36.4752 50.0287C36.527 49.9964 36.5921 49.9909 36.6487 50.0144L34.3492 55.5563C36.085 56.2765 38.061 56.1128 39.6545 55.1172L36.4752 50.0287ZM54.8653 10.5056C55.2528 9.24599 55.6079 8.1027 55.8048 7.16678C55.9949 6.26298 56.1683 5.01511 55.7036 3.74933L50.0712 5.81708C49.9331 5.44089 50.0669 5.29624 49.9333 5.93167C49.8064 6.53499 49.5534 7.36696 49.1306 8.74105L54.8653 10.5056ZM47.2594 6.86959C48.6334 6.44684 49.4652 6.194 50.0682 6.06721C50.7032 5.93371 50.5588 6.06743 50.1829 5.92946L52.2507 0.297015C50.9853 -0.167538 49.7378 0.00550468 48.8338 0.195574C47.8978 0.392353 46.7546 0.747312 45.4949 1.13492L47.2594 6.86959ZM55.7036 3.74933C55.1152 2.14635 53.8514 0.884661 52.2507 0.297015L50.1829 5.92946C50.1319 5.91073 50.0907 5.87035 50.0712 5.81708L55.7036 3.74933Z" fill="#039BE5"/>
</svg>
