<svg width="46" height="56" viewBox="0 0 46 56" fill="none" xmlns="http://www.w3.org/2000/svg">
<path d="M20.4949 51.8138L22.3795 49.4797L22.3795 49.4797L20.4949 51.8138ZM25.5056 51.8138L27.3903 54.1479L27.3903 54.1479L25.5056 51.8138ZM22.2253 52.9071L23.0279 50.0164L23.0279 50.0164L22.2253 52.9071ZM23.7743 52.9071L24.5769 55.7977L24.5769 55.7977L23.7743 52.9071ZM23.0001 24.6673C21.4613 24.6673 20.2858 23.4482 20.2858 22.0324H14.2858C14.2858 26.8408 18.227 30.6673 23.0001 30.6673V24.6673ZM20.2858 22.0324C20.2858 20.6166 21.4613 19.3975 23.0001 19.3975V13.3975C18.227 13.3975 14.2858 17.2241 14.2858 22.0324H20.2858ZM23.0001 19.3975C24.5388 19.3975 25.7144 20.6166 25.7144 22.0324H31.7144C31.7144 17.2241 27.7731 13.3975 23.0001 13.3975V19.3975ZM25.7144 22.0324C25.7144 23.4482 24.5388 24.6673 23.0001 24.6673V30.6673C27.7731 30.6673 31.7144 26.8408 31.7144 22.0324H25.7144ZM22.3795 49.4797C19.8062 47.4019 15.6494 43.6791 12.1583 38.8927C8.65094 34.084 6 28.4568 6 22.5055H0C0 30.2241 3.41261 37.084 7.31075 42.4284C11.2251 47.7952 15.8158 51.8916 18.6102 54.1479L22.3795 49.4797ZM6 22.5055C6 18.1526 7.77235 13.9622 10.9525 10.8607L6.76328 6.56528C2.44193 10.7798 0 16.5122 0 22.5055H6ZM10.9525 10.8607C14.1351 7.75674 18.4675 6 23.0002 6V0C16.9241 0 11.0821 2.35327 6.76328 6.56528L10.9525 10.8607ZM23.0002 6C27.5327 6 31.8649 7.75674 35.0476 10.8607L39.2368 6.56532C34.9181 2.35334 29.0763 0 23.0002 0V6ZM35.0476 10.8607C38.2277 13.9622 40 18.1525 40 22.5055H46C46 16.5121 43.5582 10.7798 39.2368 6.56532L35.0476 10.8607ZM40 22.5055C40 28.4567 37.3492 34.084 33.8419 38.8927C30.3509 43.6791 26.1943 47.4019 23.621 49.4797L27.3903 54.1479C30.1848 51.8916 34.7753 47.7951 38.6895 42.4283C42.5876 37.0838 46 30.224 46 22.5055H40ZM18.6102 54.1479C19.2535 54.6673 20.1345 55.4401 21.4228 55.7977L23.0279 50.0164C23.0495 50.0224 23.0806 50.0335 23.11 50.0475C23.1355 50.0597 23.134 50.0618 23.0932 50.0348C23.0478 50.0046 22.9745 49.9522 22.85 49.8555C22.7234 49.7572 22.5786 49.6404 22.3795 49.4797L18.6102 54.1479ZM23.621 49.4797C23.4222 49.6402 23.2774 49.7569 23.151 49.855C23.0267 49.9516 22.9533 50.004 22.9078 50.0342C22.867 50.0612 22.8652 50.0592 22.8905 50.0472C22.9195 50.0334 22.9503 50.0224 22.9718 50.0164L24.5769 55.7977C25.8645 55.4403 26.7452 54.6688 27.3903 54.1479L23.621 49.4797ZM21.4228 55.7977C22.3942 56.0674 23.6055 56.0674 24.5769 55.7977L22.9718 50.0164C23.0062 50.0068 23.03 50.002 23.0414 49.9998C23.0533 49.9976 23.058 49.9971 23.0553 49.9974C23.0528 49.9977 23.046 49.9984 23.0355 49.999C23.025 49.9996 23.0129 50 22.9998 50C22.9868 50 22.9747 49.9996 22.9642 49.999C22.9537 49.9984 22.9469 49.9977 22.9444 49.9974C22.9417 49.9971 22.9464 49.9976 22.9582 49.9998C22.9697 50.002 22.9934 50.0068 23.0279 50.0164L21.4228 55.7977Z" fill="#039BE5"/>
</svg>
