<svg width="60" height="56" viewBox="0 0 60 56" fill="none" xmlns="http://www.w3.org/2000/svg">
<path d="M30 53L27.4277 54.5437C27.9699 55.4473 28.9464 56.0001 30.0002 56C31.0539 55.9999 32.0304 55.447 32.5725 54.5434L30 53ZM31.7251 50.1247L29.1526 48.5812L29.1526 48.5812L31.7251 50.1247ZM56.6733 4.82006L53.9464 6.07057L53.9464 6.07057L56.6733 4.82006ZM55.3617 3.36331L56.8397 0.752652L56.8397 0.752652L55.3617 3.36331ZM55.3617 42.6365L53.8837 40.0258L55.3617 42.6365ZM56.6733 41.1799L53.9464 39.9294L53.9464 39.9294L56.6733 41.1799ZM35.1025 45.2744L37.1255 47.4897L37.1255 47.4897L35.1025 45.2744ZM38.2017 43.4314L39.1608 46.2739L39.1608 46.2739L38.2017 43.4314ZM30.9809 8.46019L28.254 7.20968L30.9809 8.46019ZM34.9146 4.08993L33.4366 1.47927L33.4366 1.47927L34.9146 4.08993ZM28.2744 50.1247L25.7019 51.6682L25.7021 51.6684L28.2744 50.1247ZM3.32698 4.82006L6.05393 6.07057L3.32698 4.82006ZM4.6377 3.36331L6.11569 5.97397L6.11569 5.97397L4.6377 3.36331ZM4.6377 42.6365L6.11569 40.0259L6.11569 40.0258L4.6377 42.6365ZM3.32698 41.1799L0.600035 42.4304L0.600035 42.4304L3.32698 41.1799ZM24.8979 45.2744L26.921 43.0592L26.921 43.0592L24.8979 45.2744ZM21.7987 43.4314L20.8395 46.2739L20.8396 46.2739L21.7987 43.4314ZM29.0186 8.46019L26.2916 9.71069L26.2916 9.71069L29.0186 8.46019ZM25.0865 4.08993L26.5645 1.47927L26.5645 1.47927L25.0865 4.08993ZM27 19.0001V53H33V19.0001H27ZM32.5725 54.5434L34.2976 51.6681L29.1526 48.5812L27.4275 51.4566L32.5725 54.5434ZM43.7065 45.9999H52.1999V39.9999H43.7065V45.9999ZM60 37.6665V8.33323H54V37.6665H60ZM52.1994 0H44.3994V6H52.1994V0ZM60 8.33323C60 7.44469 60.002 6.61561 59.9512 5.92439C59.8985 5.2063 59.7768 4.39069 59.4003 3.56956L53.9464 6.07057C53.8968 5.96247 53.9385 5.97002 53.9673 6.36356C53.9982 6.78395 54 7.35494 54 8.33323H60ZM52.1994 6C53.0944 6 53.5654 6.00287 53.8988 6.03313C54.1867 6.05926 54.0826 6.0866 53.8837 5.97397L56.8397 0.752652C55.999 0.276709 55.1539 0.122391 54.4411 0.0576961C53.7738 -0.00287466 52.9846 0 52.1994 0V6ZM59.4003 3.56956C58.8669 2.40641 57.988 1.40274 56.8397 0.752652L53.8837 5.97397C53.8644 5.96304 53.9045 5.97931 53.9464 6.07057L59.4003 3.56956ZM52.1999 45.9999C52.9851 45.9999 53.7743 46.0027 54.4415 45.9421C55.1544 45.8774 55.9992 45.723 56.8397 45.2472L53.8837 40.0258C54.0824 39.9133 54.1864 39.9406 53.8989 39.9667C53.5657 39.997 53.0949 39.9999 52.1999 39.9999V45.9999ZM54 37.6665C54 38.6448 53.9982 39.2158 53.9673 39.6363C53.9384 40.03 53.8968 40.0376 53.9464 39.9294L59.4003 42.4304C59.7769 41.6092 59.8985 40.7935 59.9512 40.0754C60.002 39.3842 60 38.555 60 37.6665H54ZM56.8397 45.2472C57.9876 44.5973 58.8667 43.5939 59.4003 42.4304L53.9464 39.9294C53.9047 40.0203 53.8647 40.0366 53.8837 40.0258L56.8397 45.2472ZM34.2976 51.6682C35.9592 48.8988 36.4947 48.0658 37.1255 47.4897L33.0795 43.0592C31.6453 44.3689 30.6169 46.1408 29.1526 48.5812L34.2976 51.6682ZM43.7065 39.9999C41.0933 39.9999 39.0975 39.9629 37.2425 40.5888L39.1608 46.2739C39.8635 46.0368 40.6845 45.9999 43.7065 45.9999V39.9999ZM37.1255 47.4897C37.7438 46.9251 38.4375 46.518 39.1608 46.2739L37.2425 40.5888C35.7016 41.1088 34.2893 41.9543 33.0795 43.0592L37.1255 47.4897ZM33 19.0001C33 16.1553 33.0019 14.1841 33.1145 12.6521C33.2252 11.147 33.4304 10.3159 33.7079 9.71069L28.254 7.20968C27.5506 8.74358 27.2653 10.3822 27.1307 12.2121C26.9981 14.0152 27 16.2445 27 19.0001H33ZM44.3994 0C41.9341 0 39.885 -0.00287683 38.2175 0.148532C36.5043 0.304085 34.9188 0.640131 33.4366 1.47927L36.3925 6.70059C36.8355 6.4498 37.4722 6.24088 38.76 6.12395C40.0935 6.00288 41.8242 6 44.3994 6V0ZM33.7079 9.71069C34.3254 8.36402 35.2838 7.3283 36.3925 6.70059L33.4366 1.47927C31.1584 2.76902 29.3622 4.79313 28.254 7.20968L33.7079 9.71069ZM32.5723 51.4563L30.8467 48.5809L25.7021 51.6684L27.4277 54.5437L32.5723 51.4563ZM16.2936 39.9999H7.80029V45.9999H16.2936V39.9999ZM6 37.6665V8.33323H0V37.6665H6ZM7.80029 6H15.6003V0H7.80029V6ZM6 8.33323C6 7.35522 6.00189 6.7842 6.03279 6.36399C6.06172 5.97061 6.10336 5.96278 6.05393 6.07057L0.600035 3.56956C0.223625 4.39038 0.101768 5.20572 0.0489514 5.92396C-0.00189259 6.61536 0 7.44442 0 8.33323H6ZM7.80029 0C7.01512 0 6.22581 -0.00287354 5.55844 0.0576921C4.84574 0.122371 4.00049 0.276651 3.1597 0.752652L6.11569 5.97397C5.91664 6.08666 5.8126 6.05928 6.10073 6.03314C6.43419 6.00287 6.90531 6 7.80029 6V0ZM6.05393 6.07057C6.09673 5.97722 6.13688 5.96197 6.11569 5.97397L3.1597 0.752652C2.00954 1.4038 1.13247 2.4085 0.600035 3.56956L6.05393 6.07057ZM7.80029 39.9999C6.90536 39.9999 6.43423 39.997 6.10081 39.9667C5.8127 39.9406 5.91669 39.9132 6.11569 40.0259L3.1597 45.2472C4.00044 45.7231 4.84565 45.8774 5.55837 45.9421C6.22577 46.0027 7.01507 45.9999 7.80029 45.9999V39.9999ZM0 37.6665C0 38.5553 -0.00189202 39.3844 0.0489493 40.0759C0.101758 40.7941 0.223594 41.6095 0.600035 42.4304L6.05393 39.9294C6.10339 40.0373 6.06173 40.0294 6.0328 39.6359C6.00189 39.2156 6 38.6445 6 37.6665H0ZM6.11569 40.0258C6.13657 40.0377 6.09658 40.0224 6.05393 39.9294L0.600035 42.4304C1.13262 43.5918 2.00985 44.5962 3.1597 45.2472L6.11569 40.0258ZM30.8469 48.5812C29.3833 46.1419 28.3553 44.3691 26.921 43.0592L22.8749 47.4897C23.5055 48.0656 24.0396 48.8977 25.7019 51.6682L30.8469 48.5812ZM16.2936 45.9999C19.3157 45.9999 20.1369 46.0368 20.8395 46.2739L22.7579 40.5888C20.9029 39.9629 18.9069 39.9999 16.2936 39.9999V45.9999ZM26.921 43.0592C25.7111 41.9543 24.2987 41.1088 22.7579 40.5888L20.8396 46.2739C21.5629 46.518 22.2567 46.9251 22.8749 47.4897L26.921 43.0592ZM33 19.0001C33 16.2443 33.0018 14.0151 32.869 12.2119C32.7343 10.3819 32.4488 8.74341 31.7455 7.20968L26.2916 9.71069C26.5692 10.3161 26.7744 11.1473 26.8852 12.6524C26.998 14.1842 27 16.1554 27 19.0001H33ZM15.6003 6C18.1755 6 19.9066 6.00288 21.2404 6.12396C22.5287 6.24091 23.1657 6.44988 23.6085 6.70059L26.5645 1.47927C25.0821 0.640054 23.4962 0.304058 21.7828 0.148526C20.115 -0.00287532 18.0656 0 15.6003 0V6ZM31.7455 7.20968C30.6379 4.79428 28.8437 2.76961 26.5645 1.47927L23.6085 6.70059C24.7162 7.32771 25.6735 8.36287 26.2916 9.71069L31.7455 7.20968Z" fill="#039BE5"/>
</svg>
