<svg width="64" height="55" viewBox="0 0 64 55" fill="none" xmlns="http://www.w3.org/2000/svg">
<path d="M29.5 49.5C29.5 51.4724 30.169 52 32 52C33.831 52 34.5 51.4724 34.5 49.5C34.5 47.5276 33.831 47 32 47C30.169 47 29.5 47.5276 29.5 49.5Z" fill="#039BE5"/>
<path d="M17.7045 35.2867C16.6201 36.5394 16.7566 38.434 18.0093 39.5184C19.262 40.6027 21.1566 40.4663 22.241 39.2136L17.7045 35.2867ZM41.885 39.1382C42.978 40.3833 44.8735 40.5067 46.1187 39.4136C47.3638 38.3206 47.4872 36.4251 46.3941 35.18L41.885 39.1382ZM10.4314 24.4082C9.34702 25.6609 9.48349 27.5555 10.7362 28.6398C11.9889 29.7242 13.8835 29.5878 14.9679 28.335L10.4314 24.4082ZM21.4785 19.6755L22.756 22.3899L22.756 22.3899L21.4785 19.6755ZM49.1123 28.2052C50.2053 29.4503 52.1008 29.5737 53.346 28.4806C54.5911 27.3876 54.7145 25.4921 53.6214 24.247L49.1123 28.2052ZM0.73176 14.6653C-0.352617 15.918 -0.216152 17.8126 1.03656 18.897C2.28928 19.9813 4.18386 19.8449 5.26824 18.5922L0.73176 14.6653ZM16.1683 6.58455L14.8907 3.87016L14.8907 3.87016L16.1683 6.58455ZM31.9568 3.00026L31.9681 6.00024L31.9568 3.00026ZM58.7454 18.3897C59.8384 19.6349 61.7339 19.7582 62.9791 18.6652C64.2243 17.5722 64.3476 15.6767 63.2546 14.4315L58.7454 18.3897ZM22.241 39.2136C23.5193 37.7368 25.0521 36.5725 26.7371 35.7795L24.182 30.3507C21.7168 31.5109 19.5149 33.1952 17.7045 35.2867L22.241 39.2136ZM26.7371 35.7795C28.4215 34.9867 30.2279 34.5783 32.0484 34.5714L32.0258 28.5715C29.3174 28.5817 26.6477 29.1902 24.182 30.3507L26.7371 35.7795ZM32.0484 34.5714C33.8692 34.5646 35.6789 34.9594 37.3677 35.7391L39.8829 30.2918C37.4089 29.1495 34.734 28.5613 32.0258 28.5715L32.0484 34.5714ZM37.3677 35.7391C39.0576 36.5194 40.5978 37.6718 41.885 39.1382L46.3941 35.18C44.5696 33.1014 42.3558 31.4335 39.8829 30.2918L37.3677 35.7391ZM14.9679 28.335C17.1728 25.7878 19.826 23.7689 22.756 22.3899L20.201 16.9611C16.4907 18.7073 13.1684 21.2462 10.4314 24.4082L14.9679 28.335ZM22.756 22.3899C25.6853 21.0112 28.8354 20.2979 32.0149 20.2859L31.9923 14.286C27.9255 14.3013 23.912 15.2145 20.201 16.9611L22.756 22.3899ZM32.0149 20.2859C35.1944 20.274 38.3489 20.9635 41.2865 22.3198L43.8016 16.8725C40.0788 15.1536 36.0591 14.2707 31.9923 14.286L32.0149 20.2859ZM41.2865 22.3198C44.2251 23.6767 46.8915 25.6753 49.1123 28.2052L53.6214 24.247C50.8633 21.105 47.5234 18.5909 43.8016 16.8725L41.2865 22.3198ZM5.26824 18.5922C8.70868 14.6176 12.8557 11.4593 17.4458 9.29894L14.8907 3.87016C9.52042 6.39771 4.7043 10.076 0.73176 14.6653L5.26824 18.5922ZM17.4458 9.29894C22.0351 7.139 26.977 6.01901 31.9681 6.00024L31.9455 0.00028235C26.0672 0.0223882 20.2619 1.34222 14.8907 3.87016L17.4458 9.29894ZM31.9681 6.00024C36.9591 5.98147 41.9072 7.06419 46.5098 9.18935L49.025 3.74198C43.6372 1.25429 37.8239 -0.0218237 31.9455 0.00028235L31.9681 6.00024ZM46.5098 9.18935C51.1132 11.3148 55.2797 14.4416 58.7454 18.3897L63.2546 14.4315C59.252 9.87189 54.4122 6.22936 49.025 3.74198L46.5098 9.18935ZM32 49C31.6593 49 31.5491 48.9725 31.5665 48.9768C31.612 48.9882 31.8666 49.0634 32.1357 49.3205C32.4098 49.5823 32.5028 49.8452 32.5225 49.9153C32.5328 49.9523 32.5 49.8498 32.5 49.5H26.5C26.5 50.6467 26.6532 52.3808 27.9911 53.6589C29.2953 54.9049 30.994 55 32 55V49ZM31.5 49.5C31.5 49.8498 31.4672 49.9523 31.4775 49.9153C31.4972 49.8452 31.5902 49.5823 31.8643 49.3205C32.1334 49.0634 32.388 48.9882 32.4335 48.9768C32.4509 48.9725 32.3407 49 32 49V55C33.006 55 34.7047 54.9049 36.0089 53.6589C37.3468 52.3808 37.5 50.6467 37.5 49.5H31.5ZM32 50C32.3407 50 32.4509 50.0275 32.4335 50.0232C32.388 50.0118 32.1334 49.9366 31.8643 49.6795C31.5902 49.4177 31.4972 49.1548 31.4775 49.0847C31.4672 49.0477 31.5 49.1502 31.5 49.5H37.5C37.5 48.3533 37.3468 46.6192 36.0089 45.3411C34.7047 44.0951 33.006 44 32 44V50ZM32 44C30.994 44 29.2953 44.0951 27.9911 45.3411C26.6532 46.6192 26.5 48.3533 26.5 49.5H32.5C32.5 49.1502 32.5328 49.0477 32.5225 49.0847C32.5028 49.1548 32.4098 49.4177 32.1357 49.6795C31.8666 49.9366 31.612 50.0118 31.5665 50.0232C31.5491 50.0275 31.6593 50 32 50V44Z" fill="#039BE5"/>
</svg>
