<svg width="70" height="70" viewBox="0 0 70 70" fill="none" xmlns="http://www.w3.org/2000/svg">
<g clip-path="url(#clip0_109_277)">
<path d="M68.8502 28.4605C68.3118 27.9029 67.6459 27.5179 66.9158 27.3331C67.3489 26.6447 67.5663 25.8425 67.5364 25.0078C67.459 22.8283 65.5871 21.0547 63.3638 21.0547H55.2424L55.2344 8.88672C55.2344 6.24847 53.088 4.10156 50.4492 4.10156C47.8104 4.10156 45.6641 6.24847 45.6641 8.88672V12.1071C45.6641 12.9333 45.4894 13.7306 45.1679 14.4585C39.1464 14.2326 34.3164 9.2659 34.3164 3.18993V1.70898C34.3164 0.766373 33.55 0 32.6074 0H14.9707C14.0281 0 13.2617 0.766373 13.2617 1.70898V2.87109C13.2617 9.09073 8.20206 14.1504 1.98242 14.1504H1.70898C0.766373 14.1504 0 14.9168 0 15.8594V36.3672C0 49.4847 10.6715 60.1562 23.7891 60.1562C33.0939 60.1562 41.5005 54.758 45.3885 46.3477H59.6831C60.6161 46.3477 61.5282 45.9631 62.1857 45.2934C62.8329 44.6339 63.1806 43.7714 63.1635 42.8645C63.155 42.4031 63.053 41.963 62.8757 41.5625H63.3638C65.5871 41.5625 67.459 39.7889 67.5364 37.6094C67.5663 36.7677 67.3457 35.9597 66.9051 35.2676C68.6248 34.8051 69.9332 33.2718 69.9973 31.4571C70.0374 30.3329 69.6299 29.2685 68.8502 28.4605ZM23.7891 58.1055C11.8027 58.1055 2.05078 48.3536 2.05078 36.3672V16.2012C9.36951 16.1638 15.3125 10.1984 15.3125 2.87109V2.05078H32.2656V3.18993C32.2656 9.92226 37.282 15.5037 43.773 16.395C43.5268 16.6193 43.2608 16.826 42.9729 17.0092L37.3712 20.5735C36.8767 20.8886 36.3058 21.0547 35.7199 21.0547H34.4585C34.0761 19.7906 32.9012 18.8672 31.5137 18.8672H25.7715C24.4347 18.8672 23.2951 19.7243 22.8716 20.918H17.8418C16.3715 20.918 15.1758 22.1143 15.1758 23.584V41.2207C15.1758 42.691 16.3715 43.8867 17.8418 43.8867H22.6953V53.9745C13.4834 53.4415 6.15234 45.7789 6.15234 36.4355V19.4456C13.1955 18.9329 18.8084 13.1843 19.1054 6.08398H22.6953V15.1074C22.6953 15.6741 23.1546 16.1328 23.7207 16.1328C24.2868 16.1328 24.7461 15.6741 24.7461 15.1074V5.05859C24.7461 4.49196 24.2868 4.0332 23.7207 4.0332H18.0923C17.5262 4.0332 17.0669 4.49196 17.0669 5.05859V5.49171C17.0669 12.0756 11.7108 17.4316 5.12695 17.4316C4.56085 17.4316 4.10156 17.8904 4.10156 18.457V36.4355C4.10156 47.2534 12.9028 56.0547 23.7207 56.0547C24.2868 56.0547 24.7461 55.5959 24.7461 55.0293V45.8323C24.9859 45.899 25.2374 45.9375 25.498 45.9375H31.5137C32.5188 45.9375 33.4128 45.4531 33.9741 44.7054L35.0678 45.3249C36.2481 45.9941 37.5886 46.3477 38.9445 46.3477H43.1059C39.391 53.5387 31.9703 58.1055 23.7891 58.1055ZM22.6953 41.8359H17.8418C17.5027 41.8359 17.2266 41.5598 17.2266 41.2207V23.584C17.2266 23.2449 17.5027 22.9688 17.8418 22.9688H22.6953V41.8359ZM65.8247 33.3594H57.832C57.2659 33.3594 56.8066 33.8181 56.8066 34.3848C56.8066 34.9514 57.2659 35.4102 57.832 35.4102H63.4375C63.9988 35.4102 64.5232 35.6329 64.9136 36.0371C65.3035 36.4409 65.507 36.9739 65.4867 37.5368C65.4482 38.6257 64.4955 39.5117 63.3638 39.5117H59.7461C59.7231 39.5117 59.7002 39.5139 59.6777 39.5149C59.6553 39.5139 59.6323 39.5117 59.6094 39.5117H57.832C57.2659 39.5117 56.8066 39.9705 56.8066 40.5371C56.8066 41.1037 57.2659 41.5625 57.832 41.5625H59.6094C59.6323 41.5625 59.6553 41.5604 59.6777 41.5593C59.7002 41.5604 59.7231 41.5625 59.7461 41.5625C60.4858 41.5625 61.0994 42.1638 61.1133 42.9035C61.1197 43.2549 60.9808 43.5935 60.7224 43.8573C60.4478 44.1367 60.0692 44.2969 59.6836 44.2969H38.9445C37.9421 44.2969 36.9514 44.0357 36.0793 43.5412L34.5898 42.6968V40.3774C34.5898 39.8113 34.1306 39.352 33.5645 39.352C32.9984 39.352 32.5391 39.8113 32.5391 40.3774V42.8613C32.5391 43.4269 32.0792 43.8867 31.5137 43.8867H25.498C25.0836 43.8867 24.7461 43.5492 24.7461 43.1348V21.9434C24.7461 21.3778 25.2059 20.918 25.7715 20.918H31.5137C32.0792 20.918 32.5391 21.3778 32.5391 21.9434V35.5923C32.5391 36.1589 32.9984 36.6177 33.5645 36.6177C34.1306 36.6177 34.5898 36.1589 34.5898 35.5923V23.1055H35.7199C36.6962 23.1055 37.6484 22.8283 38.4719 22.3038L44.0742 18.739C46.3541 17.2885 47.7148 14.8089 47.7148 12.1071V8.88672C47.7148 7.37907 48.9416 6.15234 50.4492 6.15234C51.9569 6.15234 53.1836 7.37907 53.1836 8.88725L53.1916 21.3976C53.1921 22.3391 53.959 23.1055 54.9006 23.1055H63.3638C64.4955 23.1055 65.4482 23.9915 65.4867 25.0804C65.507 25.6433 65.303 26.1763 64.9136 26.58C64.5232 26.9843 63.9988 27.207 63.4375 27.207H57.832C57.2659 27.207 56.8066 27.6658 56.8066 28.2324C56.8066 28.7991 57.2659 29.2578 57.832 29.2578H65.8984C66.4597 29.2578 66.9842 29.4805 67.3746 29.8848C67.7644 30.2885 67.9679 30.8215 67.9476 31.3844C67.9092 32.4734 66.9564 33.3594 65.8247 33.3594Z" fill="white"/>
</g>
<defs>
<clipPath id="clip0_109_277">
<rect width="70" height="70" fill="white"/>
</clipPath>
</defs>
</svg>
