<svg width="70" height="70" viewBox="0 0 70 70" fill="none" xmlns="http://www.w3.org/2000/svg">
<g clip-path="url(#clip0_109_262)">
<path d="M28.0661 50.9944C28.066 50.9944 28.0658 50.9944 28.0657 50.9944C28.0629 50.9944 28.0604 50.9948 28.0576 50.9948C26.6916 51.004 26.2305 50.9296 25.1587 50.2286C24.6848 49.9184 24.0495 50.0516 23.7392 50.5253C23.4291 50.9993 23.562 51.6348 24.0361 51.9448C25.2087 52.7119 26.0196 52.9546 27.0403 53.0223V53.9372C27.0403 54.5035 27.4992 54.9627 28.0657 54.9627C28.6321 54.9627 29.0911 54.5035 29.0911 53.9372V52.9363C31.1731 52.4921 32.3904 50.7598 32.6627 49.1399C33.0181 47.0267 31.9133 45.1894 29.8481 44.4596C28.5997 44.0184 27.2162 43.4831 26.4201 42.8587C26.0829 42.5943 25.9353 42.0512 26.0438 41.4752C26.1488 40.9178 26.5285 40.2417 27.2791 40.0156C27.5688 39.9283 27.8398 39.8839 28.0908 39.8697C28.0988 39.8696 28.1064 39.8689 28.1142 39.8685C29.207 39.8146 29.9108 40.341 30.0648 40.4692C30.5003 40.8313 31.1466 40.7722 31.5089 40.3369C31.8711 39.9016 31.812 39.255 31.3767 38.8928C31.162 38.7142 30.3395 38.0926 29.091 37.8837V37.0667C29.091 36.5004 28.632 36.0413 28.0655 36.0413C27.4991 36.0413 27.0401 36.5004 27.0401 37.0667V37.9589C26.9242 37.9861 26.807 38.016 26.6875 38.052C25.3236 38.4628 24.3046 39.6291 24.0283 41.0954C23.7757 42.4356 24.2072 43.7296 25.1543 44.4725C25.9842 45.1234 27.1461 45.6799 29.1645 46.3933C30.8113 46.9753 30.7103 48.3826 30.6402 48.8C30.4641 49.8483 29.5833 50.9806 28.0661 50.9944Z" fill="white"/>
<path d="M67.761 22.6781C67.761 21.4894 68.2879 20.036 68.7975 18.6305C69.6491 16.2812 70.5299 13.8519 69.3639 11.8383C68.5239 10.3852 67.0056 9.79713 65.9365 9.4813C65.3938 9.32065 64.8231 9.63101 64.6627 10.1741C64.5022 10.7173 64.8124 11.2877 65.3555 11.4481C66.519 11.7919 67.2284 12.242 67.5888 12.8653C68.276 14.0521 67.5928 15.9364 66.8695 17.9314C66.2995 19.5036 65.7103 21.1291 65.7103 22.6781C65.7103 24.2271 66.2997 25.8526 66.8695 27.4248C67.5928 29.4198 68.276 31.3043 67.5886 32.4915C66.8626 33.7466 64.8426 34.0965 62.704 34.4668C61.0946 34.7456 59.4305 35.0337 58.1514 35.7744C56.9235 36.4846 55.8798 37.7535 54.8703 38.9807C53.528 40.6129 52.1397 42.3005 50.5942 42.3005C49.048 42.3005 47.6593 40.6122 46.3164 38.9795C45.3073 37.7528 44.2639 36.4843 43.0373 35.7746C41.7573 35.0337 40.0929 34.7455 38.4834 34.4667C36.3445 34.0963 34.3243 33.7464 33.5983 32.4912C32.9117 31.3044 33.5946 29.4201 34.3176 27.4251C34.8875 25.8528 35.4768 24.227 35.4768 22.6779C35.4768 21.1288 34.8875 19.5031 34.3176 17.9309C33.8268 16.5764 33.3548 15.2733 33.3171 14.2044C33.3172 14.1992 33.3179 14.194 33.3179 14.1888C33.3179 14.1705 33.3161 14.1526 33.3152 14.1347C33.3067 13.6572 33.3882 13.2282 33.5985 12.8646C34.3247 11.6091 36.3454 11.2595 38.4848 10.8893C40.0938 10.6109 41.7574 10.323 43.037 9.58288C44.2641 8.87302 45.3075 7.60409 46.3166 6.37701C47.6596 4.74413 49.0481 3.05547 50.5942 3.05547C52.1397 3.05547 53.5277 4.74344 54.8701 6.37591C55.8796 7.60355 56.9235 8.87288 58.1506 9.58261C59.1524 10.1631 60.3688 10.4531 61.4265 10.6601C61.9832 10.7691 62.5211 10.4066 62.6299 9.85086C62.7387 9.29508 62.3764 8.75639 61.8206 8.64756C60.9295 8.4731 59.9188 8.23698 59.1782 7.80767C58.2716 7.28348 57.3888 6.20993 56.4541 5.07336C54.8858 3.16621 53.1083 1.00476 50.5941 1.00476C48.0793 1.00476 46.3014 3.16689 44.7325 5.07459C43.7981 6.21075 42.9156 7.28375 42.0099 7.80781C41.047 8.36468 39.5666 8.6209 38.1349 8.86864C35.625 9.30301 33.0294 9.75215 31.823 11.838C31.5772 12.2629 31.4233 12.7065 31.3401 13.1637H21.7196C19.3772 13.1637 17.4716 15.0693 17.4716 17.4116V45.7802H12.2488C10.7598 45.7802 9.45159 46.6222 8.83469 47.9775C8.21835 49.3319 8.44244 50.8697 9.41877 51.9906L13.6107 56.8087C13.8135 57.0418 14.0982 57.161 14.3847 57.161C14.6234 57.161 14.8632 57.0782 15.0574 56.9092C15.4846 56.5374 15.5296 55.8898 15.1578 55.4625L10.9655 50.6439C10.5168 50.1287 10.4179 49.4496 10.7012 48.827C10.9849 48.2034 11.5635 47.8311 12.2485 47.8311H18.4966C19.0631 47.8311 19.522 47.372 19.522 46.8056V17.4116C19.522 16.2001 20.5077 15.2145 21.7192 15.2145H31.3678C31.5579 16.3343 31.9765 17.4915 32.3892 18.63C32.8986 20.0357 33.4254 21.4894 33.4254 22.6782C33.4254 23.8671 32.8984 25.3208 32.3892 26.7264C31.5378 29.0754 30.6576 31.5043 31.8226 33.5182C32.6515 34.9515 34.1366 35.612 35.7989 36.026V46.8056C35.7989 47.372 36.2579 47.8311 36.8243 47.8311H43.0753C43.76 47.8311 44.3383 48.2035 44.6221 48.8274C44.9054 49.45 44.8069 50.1291 44.3579 50.6444L30.3799 66.7118C29.6956 67.498 28.7053 67.949 27.6626 67.9491C27.6625 67.9491 27.6624 67.9491 27.6622 67.9491C26.62 67.9491 25.6299 67.4985 24.946 66.7133L17.8501 58.5564C17.4784 58.129 16.8308 58.0842 16.4034 58.4558C15.9761 58.8275 15.9312 59.4752 16.3029 59.9025L23.3991 68.0597C24.4729 69.2928 26.0268 70 27.6624 70H27.6631C29.2991 69.9997 30.8532 69.2919 31.9272 68.058L45.9053 51.9907C46.8819 50.8696 47.1057 49.3319 46.4892 47.9775C45.8723 46.6219 44.5643 45.7798 43.0757 45.7798H37.8501V36.4381C37.9446 36.4546 38.0391 36.4709 38.1333 36.4873C39.5655 36.7353 41.0464 36.9917 42.0098 37.5494C42.9156 38.0734 43.7981 39.1463 44.7323 40.2821C46.3012 42.1893 48.0793 44.3511 50.5941 44.3511C53.1083 44.3511 54.8859 42.1899 56.4541 40.2832C57.3886 39.147 58.2715 38.0737 59.1786 37.5491C60.1411 36.9916 61.6218 36.7352 63.0539 36.4872C65.563 36.0525 68.1575 35.6033 69.3634 33.5182C70.5297 31.5039 69.6491 29.0748 68.7973 26.7253C68.2879 25.3201 67.761 23.8667 67.761 22.6781Z" fill="white"/>
<path d="M52.7395 25.6124C53.2555 25.8458 53.8629 25.6162 54.0962 25.1004C54.3294 24.5844 54.1001 23.9769 53.5841 23.7435L47.381 20.9396C47.372 20.9355 47.3627 20.9316 47.3536 20.9277C46.9128 20.744 46.4103 20.8434 46.0732 21.1813C45.7359 21.5192 45.6373 22.0221 45.8217 22.4623C45.825 22.4701 45.8283 22.4777 45.8317 22.4853L48.6199 28.7037C48.7905 29.0842 49.1645 29.3099 49.5562 29.3099C49.6964 29.3099 49.8389 29.2811 49.9751 29.22C50.4918 28.9882 50.723 28.3814 50.4912 27.8648L50.086 26.9609L51.8407 25.2062L52.7395 25.6124ZM49.1881 24.9582L48.6532 23.7651L49.8433 24.3031L49.1881 24.9582Z" fill="white"/>
<path d="M55.3526 23.505C55.5586 23.505 55.7657 23.4432 55.9441 23.317C56.0354 23.2524 56.0771 23.2229 57.681 21.6011C58.0792 21.1984 58.0756 20.5492 57.6728 20.151C57.2703 19.7529 56.621 19.7563 56.2228 20.1591C55.9296 20.4555 55.6208 20.7668 55.3558 21.0329L51.5137 17.1907C51.1131 16.7902 50.464 16.7902 50.0635 17.1907C49.6631 17.5912 49.6631 18.2405 50.0635 18.6408L54.6272 23.2044C54.8257 23.4031 55.0882 23.505 55.3526 23.505Z" fill="white"/>
<path d="M59.1498 19.715C59.4218 19.715 59.6825 19.607 59.875 19.4146L61.782 17.5076C62.1825 17.1071 62.1825 16.4579 61.782 16.0575C61.3814 15.6571 60.7322 15.6571 60.3318 16.0575L59.1498 17.2395L58.337 16.4267L59.3783 15.3854C59.7789 14.9849 59.7789 14.3358 59.3784 13.9353C58.9778 13.5349 58.3285 13.5347 57.9283 13.9353L56.8869 14.9766L56.0741 14.1638L57.2562 12.9818C57.6567 12.5813 57.6567 11.9321 57.2562 11.5317C56.8556 11.1313 56.2064 11.1313 55.806 11.5317L53.899 13.4387C53.4985 13.8392 53.4985 14.4885 53.899 14.8888L58.4246 19.4146C58.6171 19.607 58.8779 19.715 59.1498 19.715Z" fill="white"/>
<path d="M44.0711 31.4402C43.5036 31.4118 43.0244 31.8483 42.9966 32.4139C42.9688 32.9796 43.4047 33.4607 43.9705 33.4885C44.0316 33.4915 44.093 33.493 44.1541 33.493C45.201 33.493 46.2345 33.0549 47.0149 32.2746C48.0522 31.2373 48.2566 29.6974 47.5011 28.6133C46.9274 27.7904 45.7092 27.1905 44.0092 27.9739C43.2788 28.3106 42.5662 28.5956 42.3068 28.6974C42.2166 28.6986 42.1559 28.6452 42.1198 28.5968C42.0267 28.4726 42.0322 28.292 42.1346 28.1014C42.5259 27.3727 43.4754 27.2531 43.5125 27.2487C44.0722 27.1954 44.4852 26.7007 44.4367 26.1395C44.388 25.5753 43.8902 25.1575 43.3267 25.2063C42.5611 25.2726 41.0681 25.7527 40.3278 27.1313C39.8465 28.0273 39.9042 29.06 40.4782 29.8263C41.0199 30.5496 41.9028 30.884 42.7824 30.6985C42.8353 30.6873 42.8874 30.6721 42.9378 30.6527C42.9762 30.6379 43.892 30.2864 44.8681 29.8363C45.2287 29.6701 45.6679 29.5696 45.8187 29.786C45.9486 29.9725 45.9579 30.4315 45.5648 30.8244C45.1534 31.2358 44.5948 31.4659 44.0711 31.4402Z" fill="white"/>
<path d="M10.22 21.5278L10.3074 21.1983C10.7512 19.5217 9.81231 17.7716 8.17 17.2141L4.66798 16.0253C3.80184 15.7313 2.843 15.8108 2.0373 16.2431C1.23132 16.6754 0.634932 17.4304 0.401 18.3144L0.184294 19.1333C-0.0497752 20.0173 0.0950141 20.9685 0.581337 21.7429C1.06793 22.5173 1.86188 23.0606 2.76001 23.2336L6.39151 23.933C6.60042 23.9732 6.80892 23.9927 7.01496 23.9927C8.48829 23.9924 9.83077 22.9988 10.22 21.5278ZM8.3249 20.6733L8.23754 21.0028V21.0031C8.06855 21.6417 7.42787 22.0444 6.77925 21.919L3.14762 21.2195C2.80062 21.1526 2.50598 20.9511 2.31799 20.6518C2.13 20.3525 2.07626 19.9995 2.16677 19.6579L2.38348 18.839C2.47399 18.4974 2.69521 18.2172 3.0068 18.05C3.19356 17.9498 3.39646 17.8991 3.60113 17.8991C3.73758 17.8991 3.87485 17.9216 4.0087 17.9671L7.51072 19.1559C8.13623 19.3683 8.49376 20.0349 8.3249 20.6733Z" fill="white"/>
<path d="M6.99639 12.2714L9.79168 14.693C10.4136 15.2317 11.1869 15.4982 11.959 15.4982C12.8141 15.4982 13.6674 15.171 14.31 14.5245L14.5503 14.2826C15.7729 13.0524 15.835 11.0673 14.6913 9.76336L12.2528 6.9831C11.65 6.29552 10.7801 5.88481 9.86592 5.85623C8.9507 5.82834 8.0579 6.18341 7.41325 6.83189L6.81605 7.43278C6.17126 8.08153 5.82125 8.97761 5.8553 9.89147C5.88921 10.8053 6.30525 11.6727 6.99639 12.2714ZM8.27051 8.87849L8.86771 8.27759C9.10725 8.03655 9.42308 7.9053 9.76092 7.9053C9.77459 7.9053 9.78813 7.90543 9.8018 7.90598C10.1551 7.91706 10.4779 8.06936 10.7109 8.33515L13.1493 11.1157C13.5849 11.6123 13.5614 12.3683 13.0956 12.8369L12.8552 13.0787C12.3898 13.5473 11.6336 13.5756 11.1344 13.143L8.33914 10.7214C8.07212 10.49 7.91776 10.1682 7.9045 9.81504C7.89151 9.46175 8.0214 9.1291 8.27051 8.87849Z" fill="white"/>
<path d="M17.1954 8.11188C17.6656 9.46995 18.9519 10.3399 20.3314 10.3399C20.6166 10.3399 20.9058 10.3027 21.1926 10.2249H21.1927L21.5216 10.1358C23.1955 9.68173 24.2418 7.99375 23.9033 6.29265L23.1819 2.66526C23.0035 1.76822 22.4554 0.977553 21.678 0.495879C20.9006 0.0142045 19.9486 -0.124569 19.0662 0.114559L18.2486 0.336323C17.366 0.575588 16.6147 1.17662 16.1873 1.98506C15.7599 2.7935 15.6864 3.75289 15.9855 4.61697L17.1954 8.11188ZM18.0001 2.94363C18.1653 2.63121 18.4441 2.40822 18.7851 2.31579L19.6027 2.09403C19.7134 2.06409 19.8252 2.04919 19.9363 2.04919C20.1673 2.04919 20.3944 2.11358 20.5973 2.23937C20.8977 2.42558 21.1013 2.71899 21.1702 3.06558L21.8915 6.69297C22.0203 7.34076 21.6219 7.98377 20.9842 8.15673L20.6554 8.24587C20.0173 8.41896 19.3492 8.06526 19.1329 7.44112L17.9229 3.94635C17.8076 3.61206 17.835 3.25604 18.0001 2.94363Z" fill="white"/>
<path d="M67.2364 46.7656L63.6049 46.0661C61.9014 45.7377 60.2198 46.7944 59.7763 48.4712L59.6889 48.8007C59.2451 50.4773 60.184 52.2274 61.8263 52.7849L65.3283 53.9737C65.673 54.0908 66.0323 54.1486 66.3909 54.1486C66.9333 54.1486 67.4739 54.0163 67.959 53.7559C68.765 53.3236 69.3614 52.5686 69.5953 51.6846L69.812 50.8658C70.0461 49.9817 69.9013 49.0305 69.415 48.2561C68.9285 47.4819 68.1344 46.9385 67.2364 46.7656ZM67.8297 50.3412L67.613 51.16C67.5224 51.5017 67.3012 51.7818 66.9896 51.949C66.6783 52.116 66.3224 52.1455 65.9877 52.0319L62.4857 50.8431C61.8602 50.6307 61.5027 49.9642 61.6715 49.3259L61.7589 48.9964C61.7589 48.9964 61.7589 48.9962 61.7589 48.9961C61.9073 48.4358 62.4183 48.0573 62.9797 48.0573C63.0582 48.0573 63.1376 48.0647 63.2172 48.0802L66.8488 48.7797C67.1958 48.8465 67.4905 49.048 67.6784 49.3473C67.8664 49.6466 67.92 49.9994 67.8297 50.3412Z" fill="white"/>
<path d="M62.9997 57.7275L60.2044 55.3058C58.8937 54.1704 56.909 54.2441 55.6861 55.4744L55.4458 55.7163C54.2232 56.9465 54.1611 58.9316 55.3048 60.2355L57.7433 63.0159C58.3461 63.7035 59.2161 64.1142 60.1302 64.1428C60.1644 64.1439 60.1984 64.1444 60.2325 64.1444C61.1106 64.1444 61.9623 63.7915 62.5828 63.1673L63.1801 62.5664C63.8248 61.9176 64.1748 61.0215 64.1408 60.1077C64.1069 59.1937 63.6908 58.3262 62.9997 57.7275ZM61.7256 61.1204L61.1284 61.7213C60.8793 61.9719 60.5446 62.1058 60.1943 62.0929C59.841 62.0818 59.5182 61.9295 59.2852 61.6637L56.8468 58.8832C56.4112 58.3866 56.4347 57.6305 56.9005 57.162L57.1409 56.9201C57.6064 56.4519 58.3626 56.4234 58.8617 56.8559L61.6571 59.2775C61.9241 59.5088 62.0785 59.8307 62.0917 60.1838C62.1046 60.5371 61.9747 60.8698 61.7256 61.1204Z" fill="white"/>
<path d="M52.8011 61.887C52.2337 60.2482 50.478 59.3205 48.804 59.7738H48.8038L48.475 59.8629C46.8011 60.317 45.7548 62.005 46.0933 63.7061L46.8147 67.3335C46.9931 68.2305 47.5412 69.0212 48.3186 69.5028C48.8462 69.8299 49.4545 69.9989 50.0666 69.9989C50.3563 69.9989 50.6469 69.961 50.9303 69.8842L51.7479 69.6624C52.6304 69.4231 53.3817 68.8221 53.8091 68.0137C54.2365 67.2052 54.3101 66.2458 54.0109 65.3817L52.8011 61.887ZM51.9962 67.0554C51.831 67.3678 51.5522 67.5908 51.2112 67.6832L50.3936 67.905C50.0528 67.9972 49.6995 67.946 49.399 67.7598C49.0986 67.5735 48.895 67.2801 48.8261 66.9335L48.1048 63.3062C47.976 62.6584 48.3744 62.0154 49.0121 61.8424L49.3409 61.7533C49.9788 61.5804 50.6473 61.9339 50.8634 62.558L52.0734 66.0528C52.1887 66.3868 52.1613 66.7428 51.9962 67.0554Z" fill="white"/>
</g>
<defs>
<clipPath id="clip0_109_262">
<rect width="70" height="70" fill="white"/>
</clipPath>
</defs>
</svg>
