<svg width="64" height="68" viewBox="0 0 64 68" fill="none" xmlns="http://www.w3.org/2000/svg">
<path d="M30.9062 18.6875C30.9062 12.0539 25.5086 6.65625 18.875 6.65625C12.2414 6.65625 6.84375 12.0539 6.84375 18.6875C6.84375 21.4514 7.79094 23.9933 9.36375 26.0277C9.15375 26.4652 9.03125 26.942 9.03125 27.4375V34.047C7.77016 32.0323 5.53562 30.7188 3.05391 30.7188C1.52594 30.7188 0.28125 31.9623 0.28125 33.4914C0.28125 34.0405 0.442031 34.572 0.747188 35.0292L1.87266 36.7169C2.28937 37.3425 2.55844 38.0666 2.65141 38.8125L3.42687 45.013C3.54391 45.9558 3.90703 46.8559 4.47906 47.6161L6.84375 50.7705V52.5938H4.65625V67.9062H28.7188V52.5938H26.5312V50.6644L28.1423 47.4433C28.5186 46.6886 28.7188 45.842 28.7188 44.9987V27.4375C28.7188 26.942 28.5952 26.4652 28.3862 26.0277C29.9591 23.9944 30.9062 21.4525 30.9062 18.6875ZM18.875 8.84375C24.3033 8.84375 28.7188 13.2603 28.7188 18.6875C28.7188 24.1147 24.3033 28.5312 18.875 28.5312C13.4467 28.5312 9.03125 24.1147 9.03125 18.6875C9.03125 13.2603 13.4467 8.84375 18.875 8.84375ZM26.5312 54.7812V56.9688H6.84375V54.7812H26.5312ZM6.84375 65.7188V59.1562H26.5312V65.7188H6.84375ZM26.1856 46.4655L24.3438 50.1481V52.5938H9.03125V50.042L6.22906 46.3047C5.88672 45.8486 5.66797 45.3094 5.59797 44.7439L4.8225 38.5434C4.68797 37.4639 4.29859 36.4128 3.69375 35.5061L2.56719 33.8162C2.50266 33.72 2.46875 33.6073 2.46875 33.4914C2.46875 33.1688 2.73125 32.9062 3.05391 32.9062C5.36281 32.9062 7.36875 34.5502 7.82266 36.8153L9.18766 43.6425L9.85922 43.8109C11.9483 44.3338 13.4062 46.2008 13.4062 48.3533V50.4062H15.5938V48.3533C15.5938 45.4909 13.8306 42.9808 11.2188 41.9636V27.9614C11.8892 28.5159 12.6253 28.9906 13.4062 29.3909V40.5625H15.5938V30.2528C16.2992 30.453 17.0287 30.5952 17.7812 30.6641V40.5625H19.9688V30.663C20.7213 30.5952 21.4508 30.453 22.1562 30.2517V40.5625H24.3438V29.3909C25.1247 28.9906 25.8608 28.5159 26.5312 27.9614V44.9987C26.5312 45.5052 26.412 46.0127 26.1856 46.4655Z" fill="white"/>
<path d="M18.875 21.9688C18.2713 21.9688 17.7812 21.4777 17.7812 20.875H15.5938C15.5938 22.2991 16.5114 23.5022 17.7812 23.955V26.3438H19.9688V24.1562H22.1562V20.875C22.1562 19.0659 20.6841 17.5938 18.875 17.5938C18.2713 17.5938 17.7812 17.1027 17.7812 16.5V15.4062H18.875C19.4787 15.4062 19.9688 15.8973 19.9688 16.5H22.1562C22.1562 15.0759 21.2386 13.8728 19.9688 13.42V11.0312H17.7812V13.2188H15.5938V16.5C15.5938 18.3091 17.0659 19.7812 18.875 19.7812C19.4787 19.7812 19.9688 20.2723 19.9688 20.875V21.9688H18.875Z" fill="white"/>
<path d="M63.2528 32.9708L62.1273 31.2831C61.7106 30.6575 61.4416 29.9334 61.3486 29.1875L60.5731 22.987C60.4561 22.0442 60.093 21.1441 59.5209 20.3839L57.1562 17.2295V15.4062H59.3438V0.09375H35.2812V15.4062H37.4688V17.3356L35.8577 20.5567C35.4814 21.3114 35.2812 22.158 35.2812 23.0013V40.5625C35.2812 40.7802 35.3053 40.9945 35.3469 41.2034C32.6191 43.7956 30.9062 47.4477 30.9062 51.5C30.9062 59.34 37.285 65.7188 45.125 65.7188C52.965 65.7188 59.3438 59.34 59.3438 51.5C59.3438 47.4477 57.6309 43.7956 54.9031 41.2034C54.9447 40.9945 54.9688 40.7802 54.9688 40.5625V33.953C56.2298 35.9677 58.4644 37.2812 60.9461 37.2812C62.4741 37.2812 63.7188 36.0377 63.7188 34.5086C63.7188 33.9595 63.558 33.428 63.2528 32.9708ZM57.1562 2.28125V13.2188H37.4688V8.84375H46.2188V6.65625H37.4688V2.28125H57.1562ZM57.1562 51.5C57.1562 58.1336 51.7586 63.5312 45.125 63.5312C38.4914 63.5312 33.0938 58.1336 33.0938 51.5C33.0938 44.8664 38.4914 39.4688 45.125 39.4688C51.7586 39.4688 57.1562 44.8664 57.1562 51.5ZM60.9461 35.0938C58.6372 35.0938 56.6313 33.4498 56.1773 31.1847L54.8123 24.3575L54.1408 24.1891C52.0517 23.6663 50.5938 21.7992 50.5938 19.6467V17.5938H48.4062V19.6467C48.4062 22.5091 50.1694 25.0192 52.7812 26.0364V39.5377C52.0889 39.0925 51.3605 38.6987 50.5938 38.3783V27.4375H48.4062V37.6783C47.6953 37.5098 46.9658 37.3939 46.2188 37.3359V27.4375H44.0312V37.337C43.2842 37.3939 42.5547 37.5098 41.8438 37.6794V27.4375H39.6562V38.3783C38.8895 38.6987 38.1611 39.0936 37.4688 39.5377V23.0013C37.4688 22.4948 37.588 21.9873 37.8144 21.5334L39.6562 17.8519V15.4062H54.9688V17.958L57.7709 21.6953C58.1133 22.1514 58.332 22.6906 58.402 23.2561L59.1775 29.4566C59.312 30.5361 59.7014 31.5872 60.3063 32.4939L61.4317 34.1816C61.4963 34.2778 61.5302 34.3905 61.5302 34.5064C61.5312 34.8313 61.2687 35.0938 60.9461 35.0938Z" fill="white"/>
<path d="M37.7793 57.288L50.9026 44.1646L52.4492 45.7112L39.3259 58.8345L37.7793 57.288Z" fill="white"/>
<path d="M49.5 52.5938C47.6909 52.5938 46.2188 54.0659 46.2188 55.875C46.2188 57.6841 47.6909 59.1562 49.5 59.1562C51.3091 59.1562 52.7812 57.6841 52.7812 55.875C52.7812 54.0659 51.3091 52.5938 49.5 52.5938ZM49.5 56.9688C48.8963 56.9688 48.4062 56.4777 48.4062 55.875C48.4062 55.2723 48.8963 54.7812 49.5 54.7812C50.1037 54.7812 50.5938 55.2723 50.5938 55.875C50.5938 56.4777 50.1037 56.9688 49.5 56.9688Z" fill="white"/>
<path d="M40.75 50.4062C42.5591 50.4062 44.0312 48.9341 44.0312 47.125C44.0312 45.3159 42.5591 43.8438 40.75 43.8438C38.9409 43.8438 37.4688 45.3159 37.4688 47.125C37.4688 48.9341 38.9409 50.4062 40.75 50.4062ZM40.75 46.0312C41.3537 46.0312 41.8438 46.5223 41.8438 47.125C41.8438 47.7277 41.3537 48.2188 40.75 48.2188C40.1463 48.2188 39.6562 47.7277 39.6562 47.125C39.6562 46.5223 40.1463 46.0312 40.75 46.0312Z" fill="white"/>
<path d="M51.6875 11.0312C53.4966 11.0312 54.9688 9.55906 54.9688 7.75C54.9688 5.94094 53.4966 4.46875 51.6875 4.46875C49.8784 4.46875 48.4062 5.94094 48.4062 7.75C48.4062 9.55906 49.8784 11.0312 51.6875 11.0312ZM51.6875 6.65625C52.2912 6.65625 52.7812 7.14734 52.7812 7.75C52.7812 8.35266 52.2912 8.84375 51.6875 8.84375C51.0838 8.84375 50.5938 8.35266 50.5938 7.75C50.5938 7.14734 51.0838 6.65625 51.6875 6.65625Z" fill="white"/>
</svg>
