<svg width="35" height="61" viewBox="0 0 35 61" fill="none" xmlns="http://www.w3.org/2000/svg">
<path d="M29.7154 28.0368C29.9014 28.2228 29.9944 28.4368 29.9944 28.6786C29.9944 28.9204 29.9014 29.1343 29.7154 29.3203L16.7132 42.3225C16.5272 42.5086 16.3132 42.6016 16.0714 42.6016C15.8296 42.6016 15.6157 42.5086 15.4297 42.3225L2.42746 29.3203C2.24144 29.1343 2.14844 28.9204 2.14844 28.6786C2.14844 28.4368 2.24144 28.2228 2.42746 28.0368L3.82254 26.6417C4.00856 26.4557 4.22247 26.3627 4.46429 26.3627C4.7061 26.3627 4.92002 26.4557 5.10603 26.6417L16.0714 37.6071L27.0368 26.6417C27.2228 26.4557 27.4368 26.3627 27.6786 26.3627C27.9204 26.3627 28.1343 26.4557 28.3203 26.6417L29.7154 28.0368Z" fill="white"/>
<path d="M24.8292 14.2221C24.9408 14.3337 24.9967 14.4621 24.9967 14.6071C24.9967 14.7522 24.9408 14.8806 24.8292 14.9922L17.0279 22.7935C16.9163 22.9051 16.7879 22.9609 16.6429 22.9609C16.4978 22.9609 16.3694 22.9051 16.2578 22.7935L8.45647 14.9922C8.34487 14.8806 8.28906 14.7522 8.28906 14.6071C8.28906 14.4621 8.34487 14.3337 8.45647 14.2221L9.29353 13.385C9.40513 13.2734 9.53348 13.2176 9.67857 13.2176C9.82366 13.2176 9.95201 13.2734 10.0636 13.385L16.6429 19.9643L23.2221 13.385C23.3337 13.2734 23.4621 13.2176 23.6071 13.2176C23.7522 13.2176 23.8806 13.2734 23.9922 13.385L24.8292 14.2221Z" fill="#0399E4"/>
</svg>
