<svg width="24" height="31" viewBox="0 0 24 31" fill="none" xmlns="http://www.w3.org/2000/svg">
<path d="M6.42857 22.25V23.3214C6.42857 23.4665 6.37277 23.5949 6.26116 23.7065C6.16071 23.8069 6.03795 23.8571 5.89286 23.8571H4.82143C4.67634 23.8571 4.54799 23.8069 4.43638 23.7065C4.33594 23.5949 4.28571 23.4665 4.28571 23.3214V22.25C4.28571 22.1049 4.33594 21.9821 4.43638 21.8817C4.54799 21.7701 4.67634 21.7143 4.82143 21.7143H5.89286C6.03795 21.7143 6.16071 21.7701 6.26116 21.8817C6.37277 21.9821 6.42857 22.1049 6.42857 22.25ZM6.42857 17.9643V19.0357C6.42857 19.1808 6.37277 19.3092 6.26116 19.4208C6.16071 19.5212 6.03795 19.5714 5.89286 19.5714H4.82143C4.67634 19.5714 4.54799 19.5212 4.43638 19.4208C4.33594 19.3092 4.28571 19.1808 4.28571 19.0357V17.9643C4.28571 17.8192 4.33594 17.6964 4.43638 17.596C4.54799 17.4844 4.67634 17.4286 4.82143 17.4286H5.89286C6.03795 17.4286 6.16071 17.4844 6.26116 17.596C6.37277 17.6964 6.42857 17.8192 6.42857 17.9643ZM10.7143 17.9643V19.0357C10.7143 19.1808 10.6585 19.3092 10.5469 19.4208C10.4464 19.5212 10.3237 19.5714 10.1786 19.5714H9.10714C8.96205 19.5714 8.83371 19.5212 8.7221 19.4208C8.62165 19.3092 8.57143 19.1808 8.57143 19.0357V17.9643C8.57143 17.8192 8.62165 17.6964 8.7221 17.596C8.83371 17.4844 8.96205 17.4286 9.10714 17.4286H10.1786C10.3237 17.4286 10.4464 17.4844 10.5469 17.596C10.6585 17.6964 10.7143 17.8192 10.7143 17.9643ZM6.42857 13.6786V14.75C6.42857 14.8951 6.37277 15.0234 6.26116 15.135C6.16071 15.2355 6.03795 15.2857 5.89286 15.2857H4.82143C4.67634 15.2857 4.54799 15.2355 4.43638 15.135C4.33594 15.0234 4.28571 14.8951 4.28571 14.75V13.6786C4.28571 13.5335 4.33594 13.4107 4.43638 13.3103C4.54799 13.1987 4.67634 13.1429 4.82143 13.1429H5.89286C6.03795 13.1429 6.16071 13.1987 6.26116 13.3103C6.37277 13.4107 6.42857 13.5335 6.42857 13.6786ZM19.2857 22.25V23.3214C19.2857 23.4665 19.2299 23.5949 19.1183 23.7065C19.0179 23.8069 18.8951 23.8571 18.75 23.8571H17.6786C17.5335 23.8571 17.4051 23.8069 17.2935 23.7065C17.1931 23.5949 17.1429 23.4665 17.1429 23.3214V22.25C17.1429 22.1049 17.1931 21.9821 17.2935 21.8817C17.4051 21.7701 17.5335 21.7143 17.6786 21.7143H18.75C18.8951 21.7143 19.0179 21.7701 19.1183 21.8817C19.2299 21.9821 19.2857 22.1049 19.2857 22.25ZM15 17.9643V19.0357C15 19.1808 14.9442 19.3092 14.8326 19.4208C14.7321 19.5212 14.6094 19.5714 14.4643 19.5714H13.3929C13.2478 19.5714 13.1194 19.5212 13.0078 19.4208C12.9074 19.3092 12.8571 19.1808 12.8571 19.0357V17.9643C12.8571 17.8192 12.9074 17.6964 13.0078 17.596C13.1194 17.4844 13.2478 17.4286 13.3929 17.4286H14.4643C14.6094 17.4286 14.7321 17.4844 14.8326 17.596C14.9442 17.6964 15 17.8192 15 17.9643ZM10.7143 13.6786V14.75C10.7143 14.8951 10.6585 15.0234 10.5469 15.135C10.4464 15.2355 10.3237 15.2857 10.1786 15.2857H9.10714C8.96205 15.2857 8.83371 15.2355 8.7221 15.135C8.62165 15.0234 8.57143 14.8951 8.57143 14.75V13.6786C8.57143 13.5335 8.62165 13.4107 8.7221 13.3103C8.83371 13.1987 8.96205 13.1429 9.10714 13.1429H10.1786C10.3237 13.1429 10.4464 13.1987 10.5469 13.3103C10.6585 13.4107 10.7143 13.5335 10.7143 13.6786ZM6.42857 9.39286V10.4643C6.42857 10.6094 6.37277 10.7377 6.26116 10.8493C6.16071 10.9498 6.03795 11 5.89286 11H4.82143C4.67634 11 4.54799 10.9498 4.43638 10.8493C4.33594 10.7377 4.28571 10.6094 4.28571 10.4643V9.39286C4.28571 9.24777 4.33594 9.125 4.43638 9.02455C4.54799 8.91295 4.67634 8.85714 4.82143 8.85714H5.89286C6.03795 8.85714 6.16071 8.91295 6.26116 9.02455C6.37277 9.125 6.42857 9.24777 6.42857 9.39286ZM19.2857 17.9643V19.0357C19.2857 19.1808 19.2299 19.3092 19.1183 19.4208C19.0179 19.5212 18.8951 19.5714 18.75 19.5714H17.6786C17.5335 19.5714 17.4051 19.5212 17.2935 19.4208C17.1931 19.3092 17.1429 19.1808 17.1429 19.0357V17.9643C17.1429 17.8192 17.1931 17.6964 17.2935 17.596C17.4051 17.4844 17.5335 17.4286 17.6786 17.4286H18.75C18.8951 17.4286 19.0179 17.4844 19.1183 17.596C19.2299 17.6964 19.2857 17.8192 19.2857 17.9643ZM15 13.6786V14.75C15 14.8951 14.9442 15.0234 14.8326 15.135C14.7321 15.2355 14.6094 15.2857 14.4643 15.2857H13.3929C13.2478 15.2857 13.1194 15.2355 13.0078 15.135C12.9074 15.0234 12.8571 14.8951 12.8571 14.75V13.6786C12.8571 13.5335 12.9074 13.4107 13.0078 13.3103C13.1194 13.1987 13.2478 13.1429 13.3929 13.1429H14.4643C14.6094 13.1429 14.7321 13.1987 14.8326 13.3103C14.9442 13.4107 15 13.5335 15 13.6786ZM10.7143 9.39286V10.4643C10.7143 10.6094 10.6585 10.7377 10.5469 10.8493C10.4464 10.9498 10.3237 11 10.1786 11H9.10714C8.96205 11 8.83371 10.9498 8.7221 10.8493C8.62165 10.7377 8.57143 10.6094 8.57143 10.4643V9.39286C8.57143 9.24777 8.62165 9.125 8.7221 9.02455C8.83371 8.91295 8.96205 8.85714 9.10714 8.85714H10.1786C10.3237 8.85714 10.4464 8.91295 10.5469 9.02455C10.6585 9.125 10.7143 9.24777 10.7143 9.39286ZM6.42857 5.10714V6.17857C6.42857 6.32366 6.37277 6.45201 6.26116 6.56362C6.16071 6.66406 6.03795 6.71428 5.89286 6.71428H4.82143C4.67634 6.71428 4.54799 6.66406 4.43638 6.56362C4.33594 6.45201 4.28571 6.32366 4.28571 6.17857V5.10714C4.28571 4.96205 4.33594 4.83928 4.43638 4.73884C4.54799 4.62723 4.67634 4.57143 4.82143 4.57143H5.89286C6.03795 4.57143 6.16071 4.62723 6.26116 4.73884C6.37277 4.83928 6.42857 4.96205 6.42857 5.10714ZM19.2857 13.6786V14.75C19.2857 14.8951 19.2299 15.0234 19.1183 15.135C19.0179 15.2355 18.8951 15.2857 18.75 15.2857H17.6786C17.5335 15.2857 17.4051 15.2355 17.2935 15.135C17.1931 15.0234 17.1429 14.8951 17.1429 14.75V13.6786C17.1429 13.5335 17.1931 13.4107 17.2935 13.3103C17.4051 13.1987 17.5335 13.1429 17.6786 13.1429H18.75C18.8951 13.1429 19.0179 13.1987 19.1183 13.3103C19.2299 13.4107 19.2857 13.5335 19.2857 13.6786ZM15 9.39286V10.4643C15 10.6094 14.9442 10.7377 14.8326 10.8493C14.7321 10.9498 14.6094 11 14.4643 11H13.3929C13.2478 11 13.1194 10.9498 13.0078 10.8493C12.9074 10.7377 12.8571 10.6094 12.8571 10.4643V9.39286C12.8571 9.24777 12.9074 9.125 13.0078 9.02455C13.1194 8.91295 13.2478 8.85714 13.3929 8.85714H14.4643C14.6094 8.85714 14.7321 8.91295 14.8326 9.02455C14.9442 9.125 15 9.24777 15 9.39286ZM10.7143 5.10714V6.17857C10.7143 6.32366 10.6585 6.45201 10.5469 6.56362C10.4464 6.66406 10.3237 6.71428 10.1786 6.71428H9.10714C8.96205 6.71428 8.83371 6.66406 8.7221 6.56362C8.62165 6.45201 8.57143 6.32366 8.57143 6.17857V5.10714C8.57143 4.96205 8.62165 4.83928 8.7221 4.73884C8.83371 4.62723 8.96205 4.57143 9.10714 4.57143H10.1786C10.3237 4.57143 10.4464 4.62723 10.5469 4.73884C10.6585 4.83928 10.7143 4.96205 10.7143 5.10714ZM19.2857 9.39286V10.4643C19.2857 10.6094 19.2299 10.7377 19.1183 10.8493C19.0179 10.9498 18.8951 11 18.75 11H17.6786C17.5335 11 17.4051 10.9498 17.2935 10.8493C17.1931 10.7377 17.1429 10.6094 17.1429 10.4643V9.39286C17.1429 9.24777 17.1931 9.125 17.2935 9.02455C17.4051 8.91295 17.5335 8.85714 17.6786 8.85714H18.75C18.8951 8.85714 19.0179 8.91295 19.1183 9.02455C19.2299 9.125 19.2857 9.24777 19.2857 9.39286ZM15 5.10714V6.17857C15 6.32366 14.9442 6.45201 14.8326 6.56362C14.7321 6.66406 14.6094 6.71428 14.4643 6.71428H13.3929C13.2478 6.71428 13.1194 6.66406 13.0078 6.56362C12.9074 6.45201 12.8571 6.32366 12.8571 6.17857V5.10714C12.8571 4.96205 12.9074 4.83928 13.0078 4.73884C13.1194 4.62723 13.2478 4.57143 13.3929 4.57143H14.4643C14.6094 4.57143 14.7321 4.62723 14.8326 4.73884C14.9442 4.83928 15 4.96205 15 5.10714ZM19.2857 5.10714V6.17857C19.2857 6.32366 19.2299 6.45201 19.1183 6.56362C19.0179 6.66406 18.8951 6.71428 18.75 6.71428H17.6786C17.5335 6.71428 17.4051 6.66406 17.2935 6.56362C17.1931 6.45201 17.1429 6.32366 17.1429 6.17857V5.10714C17.1429 4.96205 17.1931 4.83928 17.2935 4.73884C17.4051 4.62723 17.5335 4.57143 17.6786 4.57143H18.75C18.8951 4.57143 19.0179 4.62723 19.1183 4.73884C19.2299 4.83928 19.2857 4.96205 19.2857 5.10714ZM15 28.1429H21.4286V2.42857H2.14286V28.1429H8.57143V24.3929C8.57143 24.2478 8.62165 24.125 8.7221 24.0246C8.83371 23.9129 8.96205 23.8571 9.10714 23.8571H14.4643C14.6094 23.8571 14.7321 23.9129 14.8326 24.0246C14.9442 24.125 15 24.2478 15 24.3929V28.1429ZM23.5714 1.35714V29.2143C23.5714 29.5045 23.4654 29.7556 23.2533 29.9676C23.0413 30.1797 22.7902 30.2857 22.5 30.2857H1.07143C0.78125 30.2857 0.530134 30.1797 0.31808 29.9676C0.106027 29.7556 0 29.5045 0 29.2143V1.35714C0 1.06696 0.106027 0.815847 0.31808 0.603794C0.530134 0.391739 0.78125 0.285712 1.07143 0.285712H22.5C22.7902 0.285712 23.0413 0.391739 23.2533 0.603794C23.4654 0.815847 23.5714 1.06696 23.5714 1.35714Z" fill="white"/>
</svg>
