<svg width="20" height="20" viewBox="0 0 20 20" fill="none" xmlns="http://www.w3.org/2000/svg">
<path d="M0.334961 8.33678C0.0217109 8.0471 0.191869 7.52341 0.615566 7.47317L6.61914 6.76137C6.79182 6.74089 6.94181 6.63209 7.01465 6.47419L9.54688 0.984327C9.72558 0.596891 10.2764 0.596842 10.4551 0.984278L12.9873 6.47427C13.0601 6.63217 13.2092 6.7409 13.3818 6.76138L19.3857 7.47317C19.8094 7.52341 19.9795 8.04713 19.6662 8.33682L15.2279 12.4416C15.1002 12.5596 15.0433 12.7356 15.0771 12.9062L16.2551 18.836C16.3383 19.2544 15.8929 19.5781 15.5206 19.3697L10.2453 16.4168C10.0935 16.3318 9.90871 16.3317 9.75697 16.4167L4.48109 19.3697C4.10878 19.5781 3.66294 19.2545 3.74609 18.836L4.92437 12.9061C4.95826 12.7355 4.90134 12.5597 4.77367 12.4416L0.334961 8.33678Z" fill="#9C9C9C"/>
</svg>
