<svg width="20" height="20" viewBox="0 0 20 20" fill="none" xmlns="http://www.w3.org/2000/svg">
<path d="M0.161133 8.33678C-0.152117 8.0471 0.0180407 7.52341 0.441738 7.47317L6.44531 6.76137C6.61799 6.74089 6.76799 6.63209 6.84082 6.47419L9.37305 0.984327C9.55175 0.596891 10.1025 0.596842 10.2812 0.984278L12.8135 6.47427C12.8863 6.63217 13.0353 6.7409 13.208 6.76138L19.2119 7.47317C19.6356 7.52341 19.8057 8.04713 19.4924 8.33682L15.0541 12.4416C14.9264 12.5596 14.8694 12.7356 14.9033 12.9062L16.0813 18.836C16.1645 19.2544 15.7191 19.5781 15.3468 19.3697L10.0715 16.4168C9.91971 16.3318 9.73488 16.3317 9.58314 16.4167L4.30726 19.3697C3.93495 19.5781 3.48911 19.2545 3.57227 18.836L4.75055 12.9061C4.78444 12.7355 4.72751 12.5597 4.59984 12.4416L0.161133 8.33678Z" fill="#039BE5"/>
</svg>
