<svg width="22" height="22" viewBox="0 0 22 22" fill="none" xmlns="http://www.w3.org/2000/svg">
<path d="M1 7.66667V19.2222C1 19.8445 1 20.1557 1.1211 20.3934C1.22763 20.6024 1.39748 20.7724 1.60655 20.8789C1.84422 21 2.15559 21 2.77787 21H14.3333M16.5554 6.55556L12.111 11L9.88878 8.77778M5.44439 13V4.55557C5.44439 3.31101 5.44439 2.68874 5.6866 2.21338C5.89965 1.79524 6.23935 1.45526 6.65748 1.24221C7.13284 1 7.75558 1 9.00012 1H17.4445C18.689 1 19.3109 1 19.7862 1.24221C20.2043 1.45526 20.5447 1.79524 20.7578 2.21338C21 2.68874 21 3.31102 21 4.55558V13C21 14.2445 21 14.8668 20.7578 15.3422C20.5447 15.7603 20.2043 16.1003 19.7862 16.3133C19.3109 16.5555 18.689 16.5556 17.4445 16.5556H9.00012C7.75558 16.5556 7.13284 16.5555 6.65748 16.3133C6.23935 16.1003 5.89965 15.7603 5.6866 15.3422C5.44439 14.8668 5.44439 14.2446 5.44439 13Z" stroke="black" stroke-width="2" stroke-linecap="round" stroke-linejoin="round"/>
</svg>
