<svg width="30" height="30" viewBox="0 0 30 30" fill="none" xmlns="http://www.w3.org/2000/svg">
<g clip-path="url(#clip0_19_143)">
<path d="M15 30C23.2843 30 30 23.2843 30 15C30 6.71573 23.2843 0 15 0C6.71573 0 0 6.71573 0 15C0 23.2843 6.71573 30 15 30Z" fill="#6F3FAA"/>
<path d="M21.5076 8.22908C17.8565 7.34724 14.1989 6.31576 10.4546 7.62626C8.03038 8.53535 8.03038 11.1616 8.1314 13.3839C8.1314 13.9899 7.42435 14.798 7.72733 15.5051C8.33337 17.5253 8.83845 19.5455 10.9597 20.5556C11.2627 20.7576 10.9597 21.1616 11.1617 21.4646C11.0607 21.4646 10.8586 21.5657 10.8586 21.6667C10.8586 22.1508 11.0759 22.8914 10.9316 23.3688L17.3773 29.8118C24.0036 28.7565 29.1826 23.3625 29.9113 16.6328L21.5076 8.22908Z" fill="#512D84"/>
<path d="M22.9351 10.5424L22.9302 10.5226C22.5294 8.90232 20.7225 7.16373 19.0631 6.80203L19.0445 6.79816C16.3605 6.28617 13.6391 6.28617 10.9558 6.79816L10.9365 6.80203C9.27769 7.16373 7.47072 8.90244 7.06941 10.5226L7.06496 10.5424C6.56949 12.8051 6.56949 15.0999 7.06496 17.3626L7.06941 17.3824C7.45367 18.9335 9.126 20.5923 10.7234 21.0485V22.8571C10.7234 23.5118 11.5212 23.8333 11.9748 23.3609L13.8073 21.456C14.2048 21.4782 14.6025 21.4907 15.0001 21.4907C16.3511 21.4907 17.7027 21.3629 19.0444 21.1069L19.0631 21.1031C20.7225 20.7414 22.5294 19.0027 22.9302 17.3825L22.9351 17.3627C23.4305 15.0999 23.4305 12.8053 22.9351 10.5424ZM21.4849 17.0345C21.2173 18.0916 19.8454 19.4058 18.7553 19.6486C17.3282 19.92 15.8898 20.036 14.4529 19.9962C14.4243 19.9954 14.3968 20.0065 14.3769 20.027C14.173 20.2363 13.0389 21.4005 13.0389 21.4005L11.6158 22.8612C11.5118 22.9697 11.3289 22.8958 11.3289 22.7461V19.7498C11.3289 19.7003 11.2936 19.6583 11.245 19.6487C11.2447 19.6486 11.2445 19.6486 11.2442 19.6485C10.1541 19.4057 8.78264 18.0916 8.51457 17.0345C8.06861 14.9892 8.06861 12.9158 8.51457 10.8705C8.78264 9.81346 10.1541 8.49932 11.2442 8.2565C13.7365 7.78248 16.2635 7.78248 18.7553 8.2565C19.846 8.49932 21.2173 9.81346 21.4849 10.8705C21.9314 12.9159 21.9314 14.9893 21.4849 17.0345Z" fill="white"/>
<path d="M17.3714 18.4176C17.2038 18.3667 17.0441 18.3325 16.8957 18.2711C15.3587 17.6334 13.9443 16.8107 12.8239 15.5497C12.1868 14.8327 11.6881 14.0231 11.2666 13.1663C11.0666 12.76 10.8982 12.3379 10.7264 11.9183C10.5699 11.5358 10.8005 11.1407 11.0433 10.8524C11.2712 10.5819 11.5645 10.3749 11.882 10.2223C12.1299 10.1032 12.3743 10.1719 12.5554 10.3819C12.9467 10.8362 13.3062 11.3136 13.5972 11.8401C13.7762 12.1639 13.7271 12.5598 13.4027 12.7802C13.3238 12.8337 13.252 12.8967 13.1785 12.9571C13.1141 13.0102 13.0535 13.0637 13.0093 13.1355C12.9286 13.2668 12.9248 13.4218 12.9767 13.5646C13.3767 14.6638 14.0509 15.5187 15.1575 15.9792C15.3345 16.0529 15.5123 16.1386 15.7163 16.1149C16.0579 16.075 16.1686 15.7002 16.408 15.5044C16.642 15.3131 16.941 15.3106 17.193 15.4701C17.4452 15.6297 17.6895 15.8009 17.9324 15.9741C18.1709 16.144 18.4083 16.3101 18.6282 16.5039C18.8397 16.6901 18.9125 16.9345 18.7934 17.1872C18.5754 17.6501 18.2581 18.0352 17.8006 18.281C17.6714 18.3503 17.517 18.3727 17.3714 18.4176C17.2038 18.3667 17.517 18.3727 17.3714 18.4176Z" fill="white"/>
<path d="M15.0039 9.69293C17.0142 9.7493 18.6654 11.0834 19.0193 13.0709C19.0796 13.4096 19.101 13.7558 19.1278 14.0995C19.1392 14.2441 19.0572 14.3814 18.9013 14.3834C18.7401 14.3853 18.6676 14.2504 18.6571 14.106C18.6364 13.8199 18.6221 13.5325 18.5826 13.2489C18.3746 11.7513 17.1804 10.5124 15.6898 10.2465C15.4654 10.2065 15.236 10.196 15.0087 10.1722C14.8651 10.1571 14.677 10.1484 14.6452 9.96985C14.6185 9.82014 14.7448 9.70096 14.8874 9.69329C14.926 9.691 14.965 9.69282 15.0039 9.69293C17.0143 9.7493 14.965 9.69282 15.0039 9.69293Z" fill="white"/>
<path d="M18.059 13.6535C18.0557 13.6786 18.054 13.7376 18.0392 13.7931C17.9859 13.9949 17.6798 14.0202 17.6094 13.8166C17.5885 13.7562 17.5854 13.6874 17.5853 13.6223C17.5846 13.1966 17.4921 12.7712 17.2773 12.4007C17.0566 12.0199 16.7193 11.6999 16.3239 11.5062C16.0847 11.3891 15.8261 11.3163 15.564 11.273C15.4494 11.254 15.3337 11.2426 15.2185 11.2265C15.079 11.2071 15.0045 11.1182 15.0112 10.9808C15.0173 10.852 15.1115 10.7592 15.2519 10.7673C15.7132 10.7934 16.1588 10.8932 16.569 11.1104C17.4031 11.5521 17.8796 12.2493 18.0187 13.1803C18.0249 13.2225 18.035 13.2642 18.0382 13.3065C18.0461 13.4109 18.0511 13.5155 18.059 13.6535C18.0557 13.6785 18.0511 13.5155 18.059 13.6535Z" fill="white"/>
<path d="M16.8089 13.6048C16.6407 13.6078 16.5507 13.5146 16.5333 13.3605C16.5213 13.2531 16.5117 13.1441 16.486 13.0395C16.4355 12.8334 16.326 12.6425 16.1527 12.5162C16.0709 12.4566 15.9781 12.4132 15.881 12.3851C15.7577 12.3494 15.6295 12.3592 15.5065 12.3291C15.3729 12.2964 15.2989 12.1881 15.3199 12.0628C15.3391 11.9486 15.45 11.8596 15.5748 11.8686C16.3542 11.9249 16.9112 12.3278 16.9908 13.2454C16.9964 13.3102 17.003 13.3785 16.9886 13.4406C16.9639 13.5465 16.8854 13.5996 16.8089 13.6048C16.6407 13.6078 16.8854 13.5996 16.8089 13.6048Z" fill="white"/>
<path d="M22.935 10.5424L22.9301 10.5226C22.7054 9.61436 22.0387 8.669 21.204 7.94971L20.0755 8.94979C20.7466 9.48445 21.3215 10.2251 21.4848 10.8705C21.9313 12.9158 21.9313 14.9892 21.4848 17.0346C21.2172 18.0916 19.8453 19.4058 18.7553 19.6486C17.3282 19.92 15.8898 20.036 14.4528 19.9962C14.4242 19.9954 14.3968 20.0065 14.3769 20.027C14.1729 20.2363 13.0389 21.4006 13.0389 21.4006L11.6158 22.8612C11.5117 22.9697 11.3289 22.8959 11.3289 22.7461V19.7499C11.3289 19.7003 11.2936 19.6583 11.2449 19.6487C11.2446 19.6487 11.2444 19.6486 11.2441 19.6486C10.6246 19.5106 9.91451 19.0265 9.36748 18.4403L8.25244 19.4284C8.94883 20.186 9.84701 20.7984 10.7232 21.0486V22.8573C10.7232 23.5119 11.521 23.8334 11.9746 23.361L13.8071 21.4562C14.2046 21.4784 14.6022 21.4908 14.9999 21.4908C16.3509 21.4908 17.7025 21.363 19.0442 21.1071L19.0629 21.1032C20.7222 20.7415 22.5292 19.003 22.9299 17.3827L22.9349 17.3629C23.4304 15.0999 23.4304 12.8053 22.935 10.5424Z" fill="#D1D1D1"/>
<path d="M17.3711 18.4176C17.5168 18.3727 17.2035 18.3667 17.3711 18.4176V18.4176Z" fill="white"/>
<path d="M18.6284 16.5038C18.4085 16.3101 18.171 16.1439 17.9326 15.9739C17.6897 15.8008 17.4454 15.6296 17.1932 15.47C16.9412 15.3105 16.6422 15.313 16.4082 15.5043C16.1688 15.7001 16.0582 16.0748 15.7166 16.1147C15.5126 16.1385 15.3348 16.0527 15.1577 15.9791C14.4769 15.6959 13.9603 15.2627 13.5699 14.7159L12.7402 15.4512C12.7684 15.4839 12.7953 15.5174 12.824 15.5496C13.9444 16.8106 15.3589 17.6333 16.8958 18.2709C17.0441 18.3325 17.2039 18.3667 17.3714 18.4175C17.2039 18.3666 17.5172 18.3727 17.3714 18.4175C17.5172 18.3727 17.6714 18.3501 17.8007 18.2808C18.2584 18.035 18.5756 17.6499 18.7936 17.187C18.9127 16.9344 18.8399 16.69 18.6284 16.5038Z" fill="#D1D1D1"/>
<path d="M15.0095 9.69327C15.0078 9.69327 15.0062 9.6931 15.0045 9.6931C15.0028 9.69299 15.0049 9.6931 15.0095 9.69327Z" fill="white"/>
<path d="M15.0049 9.69293C15.0066 9.69293 15.0082 9.69311 15.0099 9.69311C15.1215 9.69709 16.936 9.74707 15.0049 9.69293Z" fill="white"/>
<path d="M17.8879 10.8889L17.5342 11.2024C18.0901 11.7432 18.4734 12.46 18.583 13.2488C18.6223 13.5325 18.6368 13.8198 18.6575 14.1059C18.668 14.2504 18.7404 14.3852 18.9016 14.3834C19.0577 14.3814 19.1395 14.2441 19.1282 14.0995C19.1013 13.7558 19.0799 13.4095 19.0196 13.0709C18.8648 12.2009 18.4613 11.4561 17.8879 10.8889Z" fill="#D1D1D1"/>
<path d="M18.0188 13.18C17.9175 12.5016 17.6361 11.948 17.1687 11.5263L16.8159 11.8389C16.9983 12.0008 17.1561 12.1909 17.2776 12.4006C17.4924 12.7711 17.5849 13.1965 17.5856 13.6222C17.5857 13.6873 17.5888 13.7561 17.6097 13.8166C17.6802 14.0203 17.9862 13.9951 18.0395 13.7932C18.0543 13.7375 18.056 13.6785 18.0593 13.6535C18.056 13.6786 18.0513 13.5156 18.0593 13.6535C18.0513 13.5156 18.0463 13.4109 18.0384 13.3064C18.0353 13.2639 18.0252 13.2222 18.0188 13.18Z" fill="#D1D1D1"/>
<path d="M18.0591 13.6535C18.0511 13.5155 18.0558 13.6785 18.0591 13.6535V13.6535Z" fill="white"/>
<path d="M16.8091 13.6048C16.8117 13.6046 16.8143 13.6032 16.8168 13.603C16.8097 13.603 16.7988 13.6031 16.7876 13.6035C16.7949 13.6037 16.8015 13.6048 16.8091 13.6048Z" fill="white"/>
<path d="M16.8089 13.6048C16.8014 13.6049 16.7947 13.6038 16.7874 13.6035C16.751 13.6045 16.7135 13.6065 16.8089 13.6048Z" fill="white"/>
<path d="M16.8168 13.603C16.8141 13.6032 16.8116 13.6046 16.8091 13.6048C16.8288 13.6034 16.8271 13.603 16.8168 13.603Z" fill="white"/>
<path d="M16.4538 12.1597L16.0947 12.4779C16.1145 12.49 16.1339 12.5025 16.1527 12.5162C16.3261 12.6424 16.4356 12.8333 16.4861 13.0394C16.5117 13.144 16.5212 13.2529 16.5334 13.3605C16.5499 13.5077 16.6336 13.5983 16.7874 13.6035C16.7986 13.6032 16.8096 13.603 16.8166 13.603C16.8907 13.5947 16.9649 13.5428 16.9886 13.4404C17.003 13.3785 16.9964 13.31 16.9907 13.2452C16.9461 12.7322 16.7522 12.3803 16.4538 12.1597Z" fill="#D1D1D1"/>
</g>
<defs>
<clipPath id="clip0_19_143">
<rect width="30" height="30" fill="white"/>
</clipPath>
</defs>
</svg>
