<svg width="30" height="30" viewBox="0 0 30 30" fill="none" xmlns="http://www.w3.org/2000/svg">
<g clip-path="url(#clip0_19_167)">
<path d="M15 30C23.2843 30 30 23.2843 30 15C30 6.71573 23.2843 0 15 0C6.71573 0 0 6.71573 0 15C0 23.2843 6.71573 30 15 30Z" fill="#75B73B"/>
<path d="M21.1077 8.89605C20.238 8.67855 18.959 7.92738 18.1311 7.62627C14.8988 6.61617 10.5554 7.42424 9.34322 11.1616C9.24221 11.2627 9.04018 11.2627 8.93916 11.2627C6.5149 14.0909 8.13109 17.5253 7.92906 20.6566C7.8601 21.7604 7.27967 22.7365 6.53271 23.5621L12.8188 29.8416C13.5309 29.9453 14.2589 30 14.9998 30C22.4082 30 28.5614 24.629 29.7799 17.5687L21.1077 8.89605Z" fill="#52891D"/>
<path d="M14.5803 6.35431C10.0082 6.57181 6.40033 10.3795 6.4141 14.9565C6.41832 16.3506 6.75488 17.6664 7.34867 18.8293L6.43713 23.2539C6.38785 23.4933 6.60371 23.7029 6.84148 23.6466L11.1771 22.6194C12.2911 23.1744 13.5422 23.4947 14.8663 23.515C19.5393 23.5864 23.4357 19.876 23.5815 15.2047C23.7375 10.1974 19.6049 6.11496 14.5803 6.35431ZM19.7537 19.6837C18.484 20.9534 16.7957 21.6527 15 21.6527C13.9486 21.6527 12.9418 21.4168 12.0078 20.9516L11.4042 20.6508L8.74578 21.2805L9.30529 18.5643L9.00793 17.9817C8.52301 17.0321 8.27715 16.0055 8.27715 14.9299C8.27715 13.1341 8.97646 11.446 10.2461 10.1762C11.5045 8.91773 13.2203 8.20723 15.0001 8.20723C16.7956 8.20723 18.4839 8.90654 19.7536 10.1762C21.0233 11.4459 21.7226 13.1342 21.7226 14.9297C21.7227 16.7096 21.0121 18.4253 19.7537 19.6837Z" fill="white"/>
<path d="M19.167 16.7919L17.5039 16.3144C17.2854 16.2518 17.0499 16.3138 16.8905 16.4761L16.4838 16.8904C16.3123 17.0652 16.0522 17.1213 15.8252 17.0295C15.0384 16.7111 13.3835 15.2396 12.9611 14.5038C12.839 14.2914 12.8592 14.0261 13.0089 13.8322L13.3639 13.3728C13.503 13.193 13.5323 12.9511 13.4404 12.7431L12.7407 11.1606C12.5731 10.7817 12.0888 10.6713 11.7723 10.9389C11.3082 11.3316 10.7575 11.928 10.6906 12.5889C10.5726 13.7542 11.0724 15.2229 12.9618 16.9867C15.1449 19.0244 16.8931 19.2934 18.0315 19.0177C18.6772 18.8615 19.1932 18.2346 19.5186 17.7213C19.7407 17.3711 19.5652 16.9063 19.167 16.7919Z" fill="white"/>
<path d="M20.8594 8.65475L19.5573 9.9894C19.6236 10.0506 19.6896 10.1122 19.7537 10.1764C21.0234 11.446 21.7226 13.1344 21.7226 14.9299C21.7226 16.7097 21.012 18.4254 19.7537 19.6838C18.484 20.9535 16.7957 21.6528 14.9999 21.6528C13.9485 21.6528 12.9418 21.4169 12.0078 20.9517L11.4042 20.6509L8.74576 21.2806L8.80072 21.0138L6.44678 23.4262C6.49869 23.5823 6.66387 23.6884 6.84135 23.6464L11.177 22.6193C12.2909 23.1742 13.5421 23.4946 14.8662 23.5148C19.5392 23.5862 23.4357 19.8759 23.5814 15.2045C23.662 12.6186 22.5986 10.2794 20.8594 8.65475Z" fill="#D1D1D1"/>
<path d="M19.1666 16.7919L17.5034 16.3144C17.2849 16.2518 17.0494 16.3138 16.8901 16.4761L16.4833 16.8904C16.3119 17.0652 16.0517 17.1213 15.8247 17.0295C15.3703 16.8456 14.6264 16.2769 13.9975 15.6875L12.8413 16.8725C12.881 16.9105 12.9205 16.9484 12.9614 16.9867C15.1444 19.0244 16.8927 19.2934 18.0311 19.0178C18.6768 18.8615 19.1927 18.2346 19.5182 17.7213C19.7402 17.3711 19.5647 16.9063 19.1666 16.7919Z" fill="#D1D1D1"/>
</g>
<defs>
<clipPath id="clip0_19_167">
<rect width="30" height="30" fill="white"/>
</clipPath>
</defs>
</svg>
