<svg width="30" height="30" viewBox="0 0 30 30" fill="none" xmlns="http://www.w3.org/2000/svg">
<path fill-rule="evenodd" clip-rule="evenodd" d="M8.73613 6.11313C12.9057 5.78692 17.0944 5.78692 21.264 6.11313L24.0649 6.33225C25.625 6.45431 26.9012 7.62355 27.1591 9.16702C27.8044 13.0289 27.8044 16.9711 27.1591 20.8329C26.9012 22.3764 25.625 23.5456 24.0649 23.6677L21.264 23.8868C17.0944 24.213 12.9057 24.213 8.73613 23.8868L5.93526 23.6677C4.37517 23.5456 3.09889 22.3764 2.841 20.8329C2.19574 16.9711 2.19574 13.0289 2.841 9.16702C3.09889 7.62355 4.37517 6.45431 5.93526 6.33225L8.73613 6.11313ZM12.5 18.0877V11.9123C12.5 11.6208 12.818 11.4408 13.068 11.5907L18.2141 14.6784C18.4568 14.8241 18.4568 15.1759 18.2141 15.3215L13.068 18.4092C12.818 18.5592 12.5 18.3791 12.5 18.0877Z" fill="#039BE5"/>
</svg>
